<?xml version="1.0" encoding="UTF-8" standalone="no"?>
<!-- Created with Inkscape (http://www.inkscape.org/) -->

<svg
   width="300"
   height="250"
   viewBox="0 0 79.374998 66.145835"
   version="1.1"
   id="svg252"
   inkscape:version="1.1.2 (b8e25be833, 2022-02-05)"
   sodipodi:docname="firend-image.svg"
   xmlns:inkscape="http://www.inkscape.org/namespaces/inkscape"
   xmlns:sodipodi="http://sodipodi.sourceforge.net/DTD/sodipodi-0.dtd"
   xmlns="http://www.w3.org/2000/svg"
   xmlns:svg="http://www.w3.org/2000/svg">
  <sodipodi:namedview
     id="namedview254"
     pagecolor="#ffffff"
     bordercolor="#666666"
     borderopacity="1.0"
     inkscape:pageshadow="2"
     inkscape:pageopacity="0.0"
     inkscape:pagecheckerboard="0"
     inkscape:document-units="mm"
     showgrid="false"
     units="px"
     inkscape:zoom="0.5253601"
     inkscape:cx="-362.60843"
     inkscape:cy="562.47134"
     inkscape:window-width="1920"
     inkscape:window-height="1001"
     inkscape:window-x="-9"
     inkscape:window-y="-9"
     inkscape:window-maximized="1"
     inkscape:current-layer="layer1" />
  <defs
     id="defs249">
    <clipPath
       clipPathUnits="userSpaceOnUse"
       id="clipPath8388">
      <rect
         style="fill:#f2f2f2;stroke:#000000;stroke-width:1.68649"
         id="rect8390"
         width="412.42435"
         height="325.91281"
         x="-304.84918"
         y="-5.6699777"
         transform="matrix(-0.95030685,0.31131479,0.31131479,0.95030685,0,0)" />
    </clipPath>
  </defs>
  <g
     inkscape:label="Warstwa 1"
     inkscape:groupmode="layer"
     id="layer1">
    <g
       id="g4251"
       transform="matrix(-0.21062455,0.06899933,0.06899933,0.21062455,68.253135,-5.0529612)"
       clip-path="url(#clipPath8388)">
      <g
         id="g8224">
        <path
           id="path4"
           d="m 102.45,0 c -1.11,9.6 3.91,18.33 4.5,27.78 C 95.36,22.52 85.859,11.74 74.159,5.68 72.149,4.66 68.6002,4.82 68.3402,7.63 c 9.72,12.19 20.639,23.481 33.139,32.891 3.52,0.69 3.4009,8.3397 -2.1891,4.2297 -10.04,0.42 -23.92,-4.59 -32.07,3.75 -0.75,12.51 17.11,9.7303 22.82,16.47 -41.399,14.829 -73.77,50.089 -90.04,90.449 v 0.90938 c 7.8,4.63 5.2194,-15.649 13.009,-7.6391 10.37,-9.5 23.62,-15.341 32.5,-26.461 4.2,1.46 -2.3591,6.3609 -3.4391,8.9609 -3.27,11.73 -13.411,21.649 -12.511,34.259 2.99,0.47 6.9203,1.1706 8.6203,-2.0594 11.2,-14.86 22.22,-30.28 31.02,-46.47 -0.54,11.83 -0.8997,23.68 -1.1297,35.55 1.26,0.33 2.8697,0.92 3.7297,-0.5 6.32,-7.23 8.51,-16.811 13.5,-24.841 4.44,1.61 -0.7603,9.71 1.1297,13.4 1.88,6.99 -4.46,11.841 -5.35,18.261 4.75,4.93 7.14,-8.2103 12.05,-4.0203 2.15,4.25 2.59,9.5197 6.6,12.58 3.37,2.95 -2.4891,4.3503 -4.1391,6.2203 -15.92,17.15 -40.911,23.11 -55.011,42.35 -3.9,14.63 14.531,24.649 26.311,18.159 7.54,-4.97 16.58,-9.0103 20.45,-17.72 8.91,-4.8 15.899,-13.07 25.419,-16.58 -4.98,7.56 -14.6,11.571 -17.5,20.661 -1.78,8.4 8.6903,9.0691 14.32,8.0391 8.52,-0.14 12.631,-8.63 19.561,-11.95 4.42,0.41 11.71,-2.9303 14.93,0.87969 -13.1,22.26 -30.29,46.151 -25.82,73.381 1.59,12.54 0.03,26.159 6.1703,37.719 0.22,16.65 -24.11,22.401 -20.7,39.831 1.03,11.95 4.6603,23.349 8.9703,34.409 -20.04,15.13 -29.16,42.25 -23.05,66.62 -1.83,9.56 3.7888,20.529 14.119,21.859 2.4,8.56 4.7209,17.16 11.261,23.62 -9.68,5.69 -2.7909,17.37 -0.2109,25.37 4.63,10.9 10.861,25.27 24.681,25.37 7.42,2.28 15.209,2.4791 22.739,4.1391 7.86,3.24 16.051,-3.2203 20.741,-9.0703 1.4,-3.65 2.12,-7.73 5.15,-10.5 7.33,-6.88 6.1994,-17.609 6.6594,-26.689 7.9,-7.4 8.4003,-19.37 8.7203,-29.45 5.12,-1.12 10.991,-5.38 16.191,-2.9 10.22,12.09 15.659,27.35 25.039,40.07 13.23,16.94 -1.9803,41.559 11.73,58.389 7.29,9.2 7.9112,21.92 16.531,30.42 8.24,9.48 13.769,20.939 18.659,32.409 7.04,3.73 7.1306,13.53 14.041,17.9 10.31,6.99 8.07,21.071 16.9,29.161 15.87,20.57 15.899,47.84 28.039,70.08 3.21,7.85 0.9697,16.289 2.3297,24.409 2.6,15.61 3.6003,31.421 4.8203,47.181 0.26,5.35 4.8,10.1 2.95,15.53 -3.11,9.04 8.43,1.3097 10.5,7.0797 6.19,8.7 13.83,19.35 25.93,18.32 18.45,-0.66 37.331,3.5803 52.741,14.02 8.09,5.83 18.7,5.3394 27.4,9.9094 h 2.5406 c 4.25,-4.36 9.98,-6.68 14.45,-10.7 8.01,-10.25 8.7791,-24.2 4.5891,-36.13 8.67,3.53 17.96,1.7894 26.92,2.8594 12.15,9.2 23.94,20.28 39.27,23.9 6.87,0.97 12.84,4.8303 19.37,6.8703 7.36,2 12.17,-4.8306 15.88,-9.8906 1.32,-9.92 6.3491,-20.269 2.9391,-30.259 -2.67,-16.15 -3.2991,-32.58 -5.3891,-48.77 -9.89,-32.03 10.889,-64.089 1.4594,-96.159 -3.36,-9.58 -5.8791,-19.51 -10.489,-28.6 8.53,0.57 7.68,-10.701 5.5,-16.291 -6.87,-13.96 -11.75,-28.86 -15.1,-44.03 12.95,8.17 18.369,23.15 26.939,34.97 3.57,5.18 6.5809,-1.1997 7.2109,-4.6297 -1.6,-8.49 -6.9503,-16.29 -7.9203,-24.07 -9.28,-9.14 -19.841,-21.07 -34.361,-18.72 0.1,14.02 4.0412,27.589 5.7312,41.409 -10.48,-1.27 -18.521,-8.8294 -26.161,-15.409 -13.7,-4.95 -10.77,-23.09 -8.8703,-34.58 2.68,-10.69 -3.6391,-20.34 -7.8891,-29.62 -9.38,-11.26 -13.31,-25.89 -17.3,-39.73 -1.68,-6.48 -6.38,-12.35 -5.3,-19.37 -1.43,-3.21 3.3794,-10.95 -2.1406,-11.28 -5.63,10.41 -5.0794,22.89 -8.3094,34.08 -1.7,5.36 1.8403,12.98 -3.8297,16.37 -5.01,-10.53 -4.9403,-22.961 -11.37,-32.911 -3,-4.08 -0.55,-13.419 -8.4,-11.309 2.59,20.05 3.7694,40.23 1.3594,60.4 0.33,16.35 4.1309,33.431 -3.2891,48.941 -5.6,10.66 -2.8006,25.009 -8.3406,34.609 -3.98,-5.21 -9.34,-14.77 -16.75,-16.7 -6.54,8.56 5.0106,21.39 -2.0094,29.93 -0.85,-5.37 -3.4709,-10.069 -9.5609,-10.059 -1.77,-4.75 -1.2697,-10.8 -5.2797,-14.52 -7.22,-5.39 -3.9,-20.16 -15.15,-20.68 -7.75,15.15 -1.6606,32.98 -6.1906,49 -1.58,4.67 -1.5691,12.179 -7.1891,14.009 2.65,-15.42 -4.0609,-30.749 -0.1109,-46.089 0.48,-7.93 2.5612,-16.38 -0.7188,-23.95 -3.65,-10.02 -2.7103,-21.161 -7.0203,-30.961 -0.11,-1.33 -2.9109,-0.55 -2.8609,0.55 -1.24,8.96 -7.1097,15.98 -10.83,23.93 -8.85,10.71 -11.629,25.05 -18.039,36.72 -3.98,-7.12 4.4797,-13.83 2.4297,-21.37 10.04,-43.29 16.25,-87.339 21.55,-131.44 0.35,-24.44 8.3503,-48 13.22,-71.8 2.5,-10.26 3.6294,-21.161 8.6594,-30.591 4.29,0.2 1.8894,8.38 6.6094,8.05 5.23,-7.03 8.0006,-15.639 14.241,-21.989 4.45,-4.64 4.3603,-13.571 10.77,-16.041 -5.49,33.34 -13.44,66.77 -13.78,100.82 3.85,0.61 5.4888,-4.4997 6.4688,-7.4797 2.13,-10.47 3.24,-21.151 5.35,-31.641 0.85,-23.11 9.12,-44.969 10.55,-68.209 -0.37,-6.41 1.1303,-15.151 8.3703,-17.111 7.66,-3.06 16.221,-0.10031 23.611,-3.9203 7.74,-0.61 13.599,-7.1591 21.439,-7.2891 3.07,11.01 4.8397,22.449 8.8297,33.189 3.51,6.27 8.4003,12.141 9.4203,19.491 -5.36,-0.88 -10.61,-2.3997 -15.83,-3.8797 -6.81,-1.52 -4.0706,-11.171 -8.3906,-15.411 -5.33,3.94 4.9212,14.221 -3.7688,14.531 -8.07,-2.35 -3.9003,-16.621 -9.9203,-20.791 -7.63,2.32 2.6491,14.791 -1.2109,19.641 -5.5,1.74 -11.169,3.11 -16.489,5.3 -0.85,4.42 1.05,8.8091 1.05,13.239 -3.68,2.09 -10.27,0.71093 -11.6,5.4609 4.28,3.58 16.61,3.1797 11.92,11.53 -5.16,0.58 -10.391,-0.27093 -15.541,0.28907 -0.78,8.9 10.959,8.6209 17.159,9.0609 -0.41,3.94 1.0703,8.5991 -0.5297,12.289 -5.37,3.55 -12.239,3.14 -18.289,4.75 -1.62,1.45 -2.0509,4.3212 0.1891,5.4312 4.95,4.5 11.72,1.8294 17.45,0.95938 -1.4,9.79 10.77,7.0594 16.68,7.3094 1.43,3.4 -3.2894,6.9706 -1.0594,10.741 7.87,2.23 1.59,-13.469 9.2,-12.309 9.7,-1.89 5.2994,13.689 11.909,16.169 4.56,-3.62 -1.2091,-12.03 2.2609,-16.55 2.76,-1.88 6.1897,-4.3288 9.6797,-3.0688 2.81,5.71 4.7503,11.94 8.5703,17.1 1.61,2.41 6.6094,3.65 6.5594,-0.5 -2.2,-7.04 -8.3491,-12.481 -10.039,-19.861 1.67,-2.44 3.9588,-4.5791 6.5688,-5.9891 6.84,-1.46 10.161,7.7994 15.511,8.5094 3.67,-9.17 -8.7706,-12 -13.691,-17.55 -0.12,-3.22 0.071,-6.4703 0.9406,-9.5703 4.03,-1 11.01,3.8197 12.62,-1.6703 -1.22,-5.73 -7.3503,-8.1794 -11.12,-12.009 -2.35,-4.59 -0.6997,-11.22 -5.8797,-14.22 -2.3,-6.05 4.0094,-11.329 3.6594,-17.439 -7.09,-1.48 -2.0797,-9.8806 -1.7797,-14.491 2.04,-11.68 -2.2203,-24.669 -10.77,-32.959 -6.46,-4.69 6.1394,-12.531 9.0094,-5.9109 5.7,5.31 10.511,15.46 16.891,16.55 5.09,12.11 16.63,19.5 21.17,31.83 5.17,-3.15 0.6003,-10.539 2.3703,-15.309 1.13,-8.43 -2.9906,-16.33 -7.0906,-23.38 -7.01,-10.6 -20.009,-12.601 -30.709,-17.241 6.39,-2.93 10.96,-9.87 17.95,-11.25 6.36,11.14 13.84,21.74 18.3,33.83 8.13,10.91 8.73,25.171 12.2,37.891 8.57,48.28 22.81,95.86 23.68,145.23 3.5,22.95 9.5894,45.51 17.809,67.23 1.25,5.29 1.5909,10.78 1.8609,16.2 -8.82,0.11 -9.2606,-18.839 -19.841,-14.889 -3.09,1.24 -1.2106,5.5497 -0.7906,8.2297 6.4,15.18 10.751,31.33 20.081,45.12 6.72,15.1 15.48,32.32 32.05,37.95 6.54,-1.45 4.4297,-11.141 4.2297,-15.941 -4.12,-9.92 -12.82,-17.909 -14.37,-28.959 6.15,4.58 9.0694,12.61 16.609,15.62 3.74,1.92 10.581,4.5788 12.541,-0.73124 v -3.5688 c -10.02,-14.19 -23.521,-25.43 -36.091,-37.25 -4.65,-6.28 -9.4597,-13.551 -8.4797,-21.761 -4.3,-27.29 -9.1297,-54.7 -10.38,-82.3 -8.01,-50.13 -16.471,-100.41 -31.241,-149.08 -0.17,-2.74 -3.35,-9.4406 1.5,-8.5906 6.41,9.82 18.46,12.81 28.8,16.4 4.94,5.86 10.06,11.851 17.2,15.161 4.17,0.89 6.4003,-5.8609 2.8203,-8.0109 -4.26,-2.76 -1.5091,-8.68 -5.3391,-11.8 -9.19,-12.37 -26.65,-14.65 -34.94,-28.01 -4.62,-9.01 -8.2494,-18.49 -12.009,-27.88 -5.65,-9.98 -15.831,-16.18 -25.361,-21.97 -2.19,-5.99 6.2303,-3.48 9.3203,-1.95 11.89,4.23 30.97,6.4803 38.25,-6.5797 -4.14,-1.39 -8.4094,2.2691 -12.409,-0.26093 -11.75,-6.54 -25.32,-3.9891 -38.1,-4.6391 -1.53,-3.87 2.2694,-7.6106 1.3094,-11.641 -9.05,-1.59 -21.74,-3.3894 -23.65,-14.459 -9.75,-30.02 -22.291,-63.03 -50.491,-80.42 -28.3,-16.75 -41.88,-51.781 -74.1,-62.841 -17.95,-8.75 -38.249,-5.68 -57.389,-8.6 -9.92,0.63 -18.77,-7.9488 -28.65,-5.2688 -5.07,-6.87 -0.5209,-24.801 -12.411,-27.331 -16.54,18.3 -28.349,41.251 -37.109,63.731 -12.55,0.74 -24.98,3.53 -37.52,4.7 -4.67,-0.85 -3.73,-7.6206 -8.2,-9.2406 -4.29,-3.94 6.1797,-1.9097 7.8797,-2.0297 14.37,1.88 23.031,-10.99 34.481,-16.68 4.89,-4.16 10.599,-8.64 11.939,-15.25 4.33,-9.51 -10.72,1.6497 -9.2203,-5.1203 3.55,-5.14 7.6612,-14.271 -1.5688,-14.911 -13.47,5.43 -28.291,9.4812 -43.111,7.4312 -2.41,-4.45 4.8809,-6.0009 5.3609,-9.8609 -2.15,-0.88 -4.4912,-0.24031 -6.7312,-0.22031 0.45,-3.98 5.7209,-5.4094 7.5109,-8.9594 -11.26,-4.2 -23.27,-1.351 -34.87,-3.191 -11.95,-8.53 -29.33,-9.98 -43.4,-5.05 -8.73,2.76 -19,3.9803 -25.1,11.62 6.67,1.04 12.82,-2.3394 19,-4.2094 11.16,-2.53 22.731,-2.2803 34.091,-1.9703 2.58,6.31 -18.091,0.42 -13.681,7.05 13.14,5.2 29.37,2.1706 41.95,5.8906 -5.17,5.13 -18.619,2.4797 -24.819,6.9797 1.51,12.07 22.51,-1.4809 24.88,6.8391 -11.36,3.96 -24.051,2.42 -35.091,7.25 5.52,8.27 21.02,3.0512 28.32,7.4312 -6.69,1 -11.38,6.4991 -17.95,7.7391 -6.86,1.59 -13.58,3.8697 -19.92,6.9297 -0.69,3.15 3.7597,4.6009 5.0297,7.1109 -9.2,0.5 -20.209,1.5691 -26.939,-6.0109 -6.33,-1.08 2.8394,11.331 -2.8906,11.461 -2.67,-6.53 -3.4394,-15.621 -9.8594,-19.461 -8.2,-0.06 -10.27,11.34 -11.73,17.6 -3.58,0.37 -7.32,-5.28 -10.15,-1.2 -5.93,8.1 -9.5312,17.651 -15.331,25.841 -8.2,0.69 2.1803,-21.01 -8.0297,-19.42 -6.11,9.57 -8.3,21.151 -15,30.361 0.24,-8.88 1.2303,-17.84 3.4203,-26.45 0.56,-4.1 7.5694,-4.1 5.9094,-8.85 -9.2,-2.73 -9.5988,8.5394 -16.669,10.909 -4.08,2.07 -6.44,6.77 -11.05,7.85 2.61,-8.23 8.4791,-15.12 10.039,-23.82 -11.09,3.642 -19.89,11.472 -29.83,17.142 19.21,-20.87 40.36,-43.73 68.68,-51.32 5.19,-3.74 -8.9797,-6.5094 -1.2297,-8.3594 9.3,0.09 14.15,-7.55 20.87,-12.5 -5.72,-14.3 -6.97,-32.411 -19.24,-43.041 h -1.83 z m 208.6,59.97 c 3.03,13.23 3.0506,28.1 10.291,39.92 5.87,-2.26 1.9191,-15.33 2.8391,-20.7 2.38,0.06 6.7203,-1.1206 3.6203,4.4094 -1.57,10.37 -1.0994,20.911 -2.5094,31.291 0.5,4.15 4.9188,9.9694 9.5188,7.0094 10.75,-6.1 11.981,-20.3 11.761,-31.38 -5.21,-2.29 -5.22,6.1497 -8.45,8.5297 -2.93,1.6 -0.08,7.8203 -4.7,6.8203 -2.23,-4.73 -0.3709,-10.53 -0.3109,-15.52 0.97,-7.31 10.151,-6.0497 15.361,-5.8797 17.25,4.01 35.349,2.7694 52.409,7.5094 30.01,14.03 47.23,43.911 74.53,61.591 7.56,5.63 16.261,10.409 21.591,18.459 6.22,7.29 7.2497,17.051 11.63,25.291 9.04,13.68 7.8706,31.409 16.941,45.209 4.81,6.47 -0.4509,12.22 -3.1609,17.87 -9.1,4.09 -17.9,9.2094 -27.25,12.559 -5.75,-8.43 3.89,-17.199 3.75,-25.669 -4.4,-1.5 -0.4788,4.3497 -4.1188,4.7297 -10.5,4.55 -20.631,10.189 -31.831,12.889 0.66,-3.13 3.1103,-5.5197 4.3203,-8.4297 2.54,-3.49 0.3497,-8.9003 4.5297,-11.42 -4.69,-3.39 -1.5497,-9.5191 -2.8297,-14.239 -6.81,2.75 -5.4597,12.199 -11.88,15.309 -4.36,1.95 -5.7894,6.7903 -9.2094,9.7703 -10.75,8.81 -21.94,15.87 -34.87,20.97 -5.46,1.6 0.079,9.2391 -5.1109,11.039 -2.12,0.84 -6.9891,5.0603 -7.7391,1.4203 3.76,-7.49 -0.9506,-16.84 0.8094,-25 7.02,-16.83 19.34,-31.889 20.43,-50.909 2.72,-5.72 -3.5091,-14.11 -9.8391,-11 -2.69,10.17 -8.5906,19.2 -10.841,29.57 -5,-10.42 5.3697,-26.34 -1.2203,-38.6 -0.5,-9.14 -4.3394,-17.201 -8.5594,-25.181 -0.9,-2.14 -3.2197,-0.44969 -4.7297,-0.0297 1.94,15.66 1.6403,31.411 2.5703,47.141 4.07,9.76 0.76,20.65 3.2,30.77 0.31,3.98 2.6388,8.8688 -0.6312,12.219 3.55,15.53 1.3712,32.961 1.9812,49.261 -3.12,5.93 2.1494,13.52 -2.3406,18.58 -7.85,-4.53 -4.0994,-16.2 -5.5094,-23.42 -1.41,-5.22 -7.6806,-3.96 -10.891,-1.15 -12.31,8.52 -29.029,4.7806 -41.359,12.641 -8.29,8.63 2.2297,18.26 7.6297,24.75 -4.87,8.88 -9.4906,19.509 -4.0406,29.339 0.4,7.27 -7.5291,-3.1794 -10.989,-0.35938 -7.58,-1.37 -5.2009,10.76 0.9891,11.17 15.56,1.32 31.52,4.8103 47.23,1.8703 3.97,-0.35 8.2803,-2.0106 11.97,0.20938 -2.25,9.75 0.7903,23.289 -9.5297,28.559 2.44,17.17 -3.94,35.601 -0.4,53.411 -5.59,-0.77 -3.37,-9.4203 -5.1,-13.17 -3.1,-13.78 -13.86,-27.09 -28.67,-28.57 -4.7,-1.44 -5.8494,4.1706 -9.3594,4.3406 -1.19,-7.79 -1.34,-15.661 -1.5,-23.511 -6.14,-1.73 -5.9797,6.8312 -7.5297,10.681 1.12,5.2 -5.0003,7.9788 -3.6703,12.869 3.07,18.29 -3.4997,36.061 -9.2297,53.111 -1.15,1.72 -1.4403,5.2691 -4.1203,4.8891 1.61,-8.63 -0.99,-17.36 2.25,-25.73 2,-7.45 -2.47,-14.469 -1.85,-21.839 2.02,-6.11 -3.6906,-12.6 -8.2406,-15.27 -7.96,4.81 1.44,15.099 -1.85,22.089 1.14,8.08 -7.0897,10.97 -13.18,12.72 -3.27,11.37 -15.15,15.77 -20.67,25.6 -0.39,1.33 -2.8094,2.26 -3.1094,0.5 3.91,-10.55 11.08,-20.26 15.72,-30.58 -4.53,-3.21 -6.8709,-9.0597 -3.9109,-14.13 4.06,-6.54 3.8409,-16.61 11.461,-20.32 -0.28,-3.94 1.6688,-9.55 -2.2312,-12.1 -7.88,-1.22 -15.739,0.57062 -23.209,3.1406 -3.9,-2.89 5.1697,-3.7509 6.2297,-4.6109 5.2,-0.72 8.71,-5.5197 13.85,-5.9297 6.84,-10.45 -1.1797,-27.16 9.0703,-36.27 8.6,1.99 14.859,11.4 24.359,10.32 1.12,-7.2 -4.4591,-12.441 -8.5891,-17.441 1.04,-5.43 13.099,-1.3297 9.7594,-9.6297 -0.49,-6.21 -6.6691,-6.0903 -10.339,-9.7203 -7.45,-4.3 -16.941,-3.3988 -24.381,-7.8688 1.26,-3.05 2.1309,-8.5503 6.6609,-7.2203 1.96,-9.1 11.05,-13.62 13.43,-22.47 -1.41,-6.62 2.4897,-2.4197 4.8297,-2.4297 1.48,-4.97 1.4009,-11.65 6.5609,-14.27 6.71,-14.94 14.099,-31.18 15.389,-47.72 6.72,-3.87 14.75,-4.8097 21.32,-9.5297 3.16,-2.06 -5.0606,-6.34 -0.3406,-6.9 10.62,1.39 21.8,2.6206 31.9,5.3406 5.77,-0.9 2.5206,-8.7112 1.1906,-12.281 -7.36,-5.89 -17.361,-9.0097 -26.741,-7.4797 -13.73,-2.23 -27.269,1.6806 -40.859,2.8906 -1.65,1.25 -2.9606,2.8997 -4.3406,4.4297 5.18,1.7 10.471,4.5297 16.081,3.1797 0.12,4.84 -6.6406,3.4697 -10.191,4.2297 -8.44,-1.86 -17.341,-3.7988 -24.391,-9.0688 -6.26,-8.73 -14.7,-16.28 -17.15,-27.17 2.89,-3.04 6.96,-5.0209 9.6,-8.0109 15.48,5.09 32.181,9.7106 48.461,6.2406 2.39,-4.68 -3.6297,-7.0297 -6.6797,-8.9797 5.84,-4.56 14.639,0.82031 20.619,0.77031 3.51,-11.47 -14.05,-10.171 -18.23,-15.291 15.99,-4.31 36.711,3.3397 44.541,19.23 2.14,2.14 2.3094,6.0003 4.4594,7.6703 3.28,-5.57 -1.38,-9.8194 -4.2,-13.959 -9.23,-16.56 -30.049,-27.21 -48.609,-22.8 -16.52,0.73 -31.621,8.9094 -44.061,19.159 -6.35,2.36 -6.2494,13.281 -13.109,12.191 -1,-6.1 3.0794,-11.081 4.7594,-16.611 4.85,-17.87 10.411,-35.76 18.791,-52.23 1.26,-8.41 6.7294,-15.08 10.559,-22.4 3.29,-8.62 5.7003,-17.48 11.17,-24.9 0.4,-0.1 1.1803,-0.28969 1.5703,-0.37969 z M 227.36,64 c 4.31,2.35 14.001,-0.99938 15.531,3.8406 -5.81,1.09 -11.72,2.5397 -17.65,2.0297 -0.81,-2.33 -0.031,-4.6303 2.1188,-5.8703 z m 31.894,8.0562 c 1.5168,0.14428 -0.4153,3.4725 -2.3734,3.9031 -8.72,3.54 -18.069,5.9612 -27.539,6.1312 -1.94,3.33 4.6488,4.1797 6.2188,4.5797 5.17,1.47 10.601,1.74 15.541,-0.6 -2.53,6.51 -9.86,10.39 -16.7,10.07 -0.65,-1.94 6.5606,-3.7706 2.3906,-5.9406 -9.47,1.59 -19.011,3.8003 -28.631,4.7703 0.22,-5.04 8.1906,-4.3206 10.241,-8.6406 4.75,-2.94 -1.0903,-11.5 5.7797,-12.3 10.94,2.5 22.84,2.7309 33.43,-1.4891 0.7593,-0.38062 1.2937,-0.51767 1.6437,-0.48438 z m -106.14,30.103 c 8.13,0.4 16.27,2.41 24.45,0.9 5.57,4.08 -2.4991,10.98 0.8609,16.3 2.25,25.33 24.93,41.211 41.85,57.391 2.17,5.86 -11.71,-2.8203 -11.08,3.9297 3.09,5.18 8.9991,8.1906 11.589,13.741 -1.21,5.99 -9.4194,-2.8406 -11.609,0.90938 1.2,12.47 18.67,20.69 14.15,33.97 -2.05,4.56 -4.7103,-1.3206 -7.4203,-1.1406 5.28,20.36 5.5597,41.461 5.4297,62.331 3.3,2.68 2.27,7.15 2.05,10.85 -4.14,1.65 -8.0597,-2.3306 -12.28,-2.1906 -0.67,3.95 4.7097,5.11 5.0797,8.9 1.79,12.82 -0.4294,25.991 2.7406,38.691 -2.17,5.28 -8.67,-1.6809 -10.75,1.1391 5.67,9.51 16.5,18.821 16.83,31.041 3.07,5.93 6.7997,-3.0603 7.6297,-6.2203 -1.02,-5.69 -0.28,-11.3 0.9,-16.88 -0.71,-9.25 -7.0503,-17.241 -8.5703,-25.941 -0.49,-1.99 0.65,-6.6803 3.25,-4.2203 5.04,7.74 8.6903,16.301 13.07,24.411 4.55,-10.95 1.5003,-25.86 -3.0297,-37.25 -1.31,-5.69 -7.6794,-8.8209 -8.2094,-14.661 8.32,3.09 17.01,0.59031 25.38,-0.82969 5.37,1.84 10.92,4.0606 15.7,7.2406 3.58,-1.09 10.11,-2.7797 11.78,1.0703 -6.43,5.69 -10.78,13.209 -16.72,19.359 4.48,3.83 4.6806,10.229 8.1406,14.659 5.4,2.42 5.9494,9.51 6.3594,14.8 -3.11,3.18 -6.3094,6.7909 -5.6594,11.711 -0.13,7.53 -3.7606,14.35 -4.5406,21.77 -4.85,4.64 -11.07,7.9 -15.2,13.35 -2.42,3.48 -7.1291,5.7697 -11.239,3.7797 -7.7,-3.83 -18.821,0.94031 -24.841,-6.4797 -1.05,-6.94 -2.6797,-13.72 -4.9297,-20.35 -7.52,-6.86 -7.6006,-17.031 -9.1906,-26.231 -4.86,-11.09 -14.65,-21.09 -27.07,-22.93 -8.62,1.47 -16.079,6.4803 -24.089,9.7703 -2.46,0.82 -4.3706,3.2003 -3.5906,5.8703 1.51,7.51 -5.8591,14.909 -1.1891,22.039 1.53,4.45 5.6491,6.5006 9.3891,8.6906 7.71,11.58 21.35,19.9 22.18,34.98 -3.94,4.93 -12.479,5.4603 -13.969,12.42 -2.19,6.22 2.75,11.86 6.2,16.47 0.44,4.47 -7.2606,6.1997 -5.6406,11.13 0.14,7.08 7.04,10.62 13.35,9.6203 1.27,4.04 -7.3297,0.0603 -4.2797,6.4703 -2.03,6.43 4.74,10.359 10.2,10.839 0.73,2.74 -1.7409,5.4303 -1.3109,8.2203 1.63,4.4 6.3212,6.2397 9.5312,9.2797 0.37,6.59 1.16,13.801 -2.15,19.841 -4.37,0.19 -4.33,-8.8797 -9.7,-8.7297 -2.33,-0.47 -3.9306,2.41 -2.1406,4.05 6.33,9.33 5.3003,21.04 6.1703,31.73 -6.17,-2.32 -5.1806,-23.68 -15.841,-18.73 2.04,9.63 5.4506,18.989 7.0406,28.709 -10.6,-2.58 -9.9909,-20.911 -19.911,-22.441 -3.51,9.78 4.8409,20.101 7.6609,29.441 -11.3,-5.5 -14.61,-19.95 -19.85,-30.78 -2.58,-2.88 -1.6297,-13.7 -7.6297,-10.35 -1.57,13.97 2.4891,27.86 8.6891,40.15 -9.68,-8.6 -12.8,-23.13 -16.03,-35.65 -5.76,-13 -3.6903,-28.151 -11.82,-40.311 -0.9,-3.58 -6.8991,-1.5091 -6.8391,-5.5391 -1.92,-1.67 1.7297,-8.55 -2.3703,-8.3 -7.19,-0.43 0.07,15.37 -8.4297,11.47 -2.91,-10.36 -7.4609,-21.271 -3.2609,-31.991 3.06,-15.53 16.201,-26.21 21.541,-40.78 1.75,-5.76 -5.3809,-8.9006 -4.0609,-14.691 -0.3,-11.57 -9.84,-24.03 -2.8,-34.97 12.25,-6.82 22.96,-17.82 26.5,-31.75 -0.1,-5.05 3.1,-15.019 -4.05,-17.039 -3.25,-2.25 -6.2391,6.3497 -7.4891,0.62969 -0.69,-11.5 -3.0206,-22.891 -3.4406,-34.391 3.98,-15.94 11.45,-30.82 20.8,-44.23 1.61,0.03 0.2209,2.31 0.2609,3.25 -6.36,16 -9.2509,33.871 -4.6609,50.761 4.75,0.08 3.2206,-6.3803 4.0406,-9.2203 3.78,-18.77 8.5497,-37.351 11.83,-56.211 1.84,-2.89 3.6506,2.1212 2.9406,3.9812 -4.21,17.07 -7.4712,35.299 -3.6812,52.589 3.52,-14.4 6.3103,-29.139 7.2203,-43.959 -0.18,-3.17 2.3303,-0.68093 3.7203,0.0891 -0.13,19.94 0.1394,39.99 3.1594,59.75 3.24,-21.24 6.1803,-45.539 -3.9297,-65.019 1.22,-16.67 2.8297,-34.321 10.88,-49.311 0.26,-8.76 3.5912,-17.049 3.7812,-25.789 -0.97,-7.69 -8.7006,-12.14 -10.591,-19.5 -3.55,-9.24 -9.6706,-17.391 -17.191,-23.781 -1.94,-1.28 -3.58,-5.68 -0.05,-5.7 z m 42.789,0.11249 c 0.8201,-0.0218 1.6541,0.0481 2.4922,0.21875 6.4,0.7 13.169,0.31907 19.309,2.5391 7.71,7.15 13.16,18.97 8.55,29.23 -2.85,8.22 -7.3303,20.091 -18.17,18.711 -7.41,1.58 -8.3303,-7.5606 -10.52,-12.441 -4.1,-7.3 -8.1291,-14.679 -12.639,-21.759 -3.5706,-7.5853 3.0512,-16.288 10.978,-16.498 z m -65.008,1.6984 c 5.5,8.28 12.639,16.81 23.509,17.28 7.23,13.49 22.38,28.19 13.23,44.23 -5.41,5.75 -2.4203,13.751 -3.4703,20.491 -3.94,-4.15 -6.9391,0.90969 -9.7891,3.5797 -2.64,4.74 -0.4509,11.86 -4.1609,15.9 -10.07,2.06 -23.66,-2.93 -31.43,6.35 -4.1,3.17 -12.97,14.191 -17.45,8.5406 15.5,-16.5 34.64,-29.441 50.73,-45.461 -2.82,-4.52 -8.0897,1.3297 -11.23,2.9797 -5.58,2.07 -8.6091,9.69 -14.639,9.9 -0.36,-5.53 5.6594,-10.629 3.1594,-16.189 -9.44,-2.85 -19.28,4.5897 -23.5,12.18 6.15,-2.89 11.391,-7.8897 18.041,-9.7297 6.43,1.6 -1.0703,10.26 -5.4703,8.6 1.13,3.55 -1.1609,7.5097 -3.6609,2.8797 -16.64,12.04 -31.199,28.101 -50.239,36.991 -2.68,1.55 -7.1309,5.79 -9.5609,1.8 2.24,-2.25 4.7809,-4.1906 6.9109,-6.5406 -0.53,-4.25 -6.4509,-3.1906 -5.8109,0.80938 -2.58,-0.48 -11.709,0.33062 -8.3188,-4.6094 9.99,-10.96 25.279,-13.991 37.159,-22.041 7.05,-11.44 22.46,-13.519 28.42,-26.009 -8.53,-2.52 -16.4,-10.24 -16.48,-19.17 8.34,-9.99 10.769,-22.99 15.309,-34.72 5.58,2.3 4.0006,14.97 10.541,15.8 4.66,-6.27 1.44,-18.909 8.2,-23.839 z m 79.695,3.1844 c -2.2338,0.0381 -4.4965,0.32593 -6.0265,0.25469 -5.24,-0.18 -10.229,2.1206 -13.489,6.1906 -1.41,7.02 5.39,12.69 11.75,13.33 5.78,3.24 3.4091,8.9109 2.2891,13.911 8.38,4.98 8.9112,-7.7503 10.381,-12.97 -1.15,-8.04 -11.801,-8.5509 -17.641,-11.111 4.35,-7.16 18.471,6.1103 20.141,-4.8797 -0.038,-4.1562 -3.6816,-4.7885 -7.4047,-4.725 z m 23.834,12.066 c 8.48,0.18 16.76,3.6403 25.42,2.1703 2.6,0.79 10.559,-4.0306 10.089,1.5594 -3.49,13.42 -8.2797,26.5 -12.03,39.87 -0.91,4.41 -5.5097,6.3 -8.9797,8.4 -8.31,3.72 -12.47,-8.8609 -20.82,-6.9109 -6.68,0.71 -13.16,-0.82907 -19.27,-3.4891 1.03,-3.66 7.0103,-1.2997 9.4703,-3.2797 7.25,-3.38 13.459,-12.41 11.559,-20.07 3.16,-5.52 0.5809,-13.42 4.5609,-18.25 z m -108.34,12.636 c -0.4054,0.007 -0.9094,0.1275 -1.5281,0.38437 -2.87,2.47 -8.4994,13.28 -9.8094,5.4 -3.04,-0.15 -4.2809,6.4594 -9.3609,4.8094 0.3,6.9 7.0109,16.06 14.911,15.1 8.39,-7.86 19.759,-10.489 30.719,-12.409 2.02,-0.51 6.8109,-1.7706 4.3609,-4.5406 -11.75,-4.1 -24.121,1.7594 -34.361,7.4094 2.86,-5.82 9.3703,-8.9397 12.77,-14.13 -2.25,0.52 -4.4003,1.4009 -6.6203,2.0609 0.585,-2.0475 0.6756,-4.116 -1.0813,-4.0844 z m 277.99,3.9406 c -0.8923,0.0123 -1.7947,0.0619 -2.7078,0.15313 -0.72,1.76 0.1606,3.1597 1.7906,3.8797 11.98,11.53 26.809,19.57 41.159,27.83 2.88,1.8 7.8,1.5 8.75,5.4 -3.34,2.01 -7.1391,-0.93876 -10.739,-0.66876 -1.96,3.36 4.8803,4.3791 2.8703,7.1891 -3.57,0.93 -6.94,-0.0497 -10.15,-1.3797 -5.16,3.34 1.6091,8.8203 5.6391,8.2703 1.33,6.03 -5.0494,9.8203 -5.3094,15.32 1.13,2.88 2.3397,8.62 6.2297,7.95 4.24,-5.46 7.35,-12.49 12.65,-16.7 5.22,1.58 9.84,5.07 13.9,8.9 5.57,-5.79 -6.66,-11.231 -9.25,-15.641 5.08,-2.49 9.7994,5.8294 13.909,0.25938 1.8,-5.06 -5.8891,-3.7894 -7.1891,-7.6094 1.39,-15.43 -15.23,-21.861 -25.83,-28.741 -11.222,-6.2531 -22.339,-14.597 -35.723,-14.413 z m -251.12,18.634 c -0.5521,-0.006 -1.1032,0.007 -1.6532,0.0391 -6.92,0.92 -13.581,3.1091 -19.911,5.9891 -1.43,2.21 1.0203,3.7303 2.8703,4.3203 9.07,-0.84 18.199,-1.7394 27.309,-1.0094 1.77,-1.68 4.6206,-4.6497 2.7906,-7.1297 -3.6487,-1.225 -7.5422,-2.1673 -11.406,-2.2094 z m 105.2,21.683 c 1.5568,-0.0392 1.1787,2.9403 1.4062,4.2266 3.25,17.44 14.35,32.069 27.4,43.709 11.51,5.25 13.58,19.05 17.5,29.65 -1.93,7.68 7.2594,23.191 -5.2406,23.841 -2.61,-7.38 -9.6491,-11.16 -14.839,-16.4 -1.37,-9.12 3.2303,-17.57 3.4703,-26.57 -5.46,-6.12 -14.34,-5.36 -21.54,-7.57 -6.57,-4.99 -15.03,-6.0794 -21.93,-10.309 -5.13,-4.26 1.2003,-10.441 0.6203,-15.691 1.01,-9.15 -11.061,-14.18 -9.8406,-23.65 7.41,2.25 15.9,6.1297 22.2,-1.0203 0.3088,-0.14251 0.5713,-0.21003 0.7938,-0.21563 z m -3.9235,53.816 c 8.93,1.94 17.88,4.5603 25.27,9.9703 1.14,6.63 -0.8703,13.73 -0.4703,20.53 3.62,8.35 9.4691,17.03 19.289,18.37 2.7,4.86 -4.5188,7.51 -5.8188,11.7 -1.21,4.16 -5.79,6.0394 -9.75,4.6594 -8.81,-0.87 -15.691,-7.3797 -24.381,-8.5797 -8.87,-1.89 -17.309,3.1897 -26.169,2.3297 -0.06,-0.67 -0.1603,-1.9988 -0.2203,-2.6688 10.11,-3 23.11,-1.4403 30.95,-9.3203 -7.46,-6.22 -18.81,-9.8903 -28.9,-12.17 l 0.2391,-2.6406 c 10.21,-0.59 20.231,4.33 30.441,2.15 2.56,-0.44 3.2494,-4.5791 0.6594,-5.4891 -9.07,-5.43 -18.159,-12.791 -29.039,-13.441 -1.27,-3.14 0.7803,-7.5494 5.2703,-5.1094 9.38,3.14 19.819,8.5994 29.639,4.0594 -4.71,-5.86 -13.199,-8.1 -17.009,-14.35 z m -12.783,0.20781 c 2.8248,0.16529 5.2319,3.5853 7.4719,5.2828 -2.23,1.59 -13.879,-0.14062 -8.7094,-5.1406 0.4213,-0.12375 0.834,-0.1658 1.2375,-0.14219 z m 78.431,2.1672 c 2.0965,10e-4 3.7296,0.58156 2.6609,3.1859 -2.33,5.29 -5.67,10.919 -8.6,15.359 -3.19,-4.89 -9.09,-10.62 -9.55,-17.57 3.63,0.62 7.2509,0.21062 10.811,-0.60938 1.1375,-0.0175 3.0475,-0.36666 4.6782,-0.36562 z m -89.739,15.566 c 5.34,2.08 10.95,3.65 15.95,6.5 -5.01,5.06 -16.8,2.51 -15.95,-6.5 z m 305.01,10.377 c 9.0624,0.20779 14.992,10.308 13.117,18.783 -7.91,11.56 -21.18,17.291 -32.58,24.661 -19.21,9.2 -39.15,17.67 -60.4,20.63 -10.78,2.02 -23.289,3.4797 -33.059,-2.6203 -2.71,-1.4 -0.12,-4.94 2.2,-3.35 14.93,8.16 32.079,2.1403 47.459,-1.4797 11.95,-2.13 22.46,-8.3797 33.07,-13.88 11.01,-9.92 26.459,-14.331 34.509,-27.531 1.72,-1.91 4.66,-8.0797 -0.05,-7.3297 -5.42,12.82 -18.44,18.8 -29.53,25.75 -18.64,11.58 -40.009,18.481 -61.659,21.511 -7.86,1.18 -17.17,0.56907 -23.53,-4.6609 17.73,-0.92 35.999,-1.1103 52.989,-7.0703 15.32,-4.59 28.65,-13.59 42.28,-21.65 6.8,-5.32 13.761,-12.279 13.331,-21.669 0.6306,-0.0775 1.2474,-0.1076 1.8516,-0.0937 z m -300.99,12.73 c 2.55,0.72 6.5294,1.8291 6.7594,4.8891 -5.09,3.65 -12.529,1.2709 -6.7594,-4.8891 z m 322.15,3.3 c 8.82,4.27 21.29,9.54 24.05,20.4 1.26,3.17 -3.4503,2.3388 -4.2203,0.26876 -4.9,-7.16 -12.04,-12.37 -19.42,-16.75 -1.76,-0.63 -2.2794,-3.0588 -0.4094,-3.9188 z m -144.21,32.75 c 4.613,-0.1358 3.7806,7.1619 3.1281,10.633 3.76,9.49 2.3497,20.24 -2.2203,29.32 -6.46,11.97 -5.6806,26.2 -11.291,38.53 -1.92,26.91 -11.15,52.62 -14.93,79.27 -3.77,1.9 -1.35,-6.0612 -3.1,-6.6812 -4,-13.79 5.07,-26.419 0.35,-39.859 6.06,-13.9 8.2506,-30.041 17.741,-42.041 -2.12,-6.04 -9.0109,-3.0491 -13.611,-2.2391 1.78,-8.7 13.241,-14.39 10.161,-24.12 -6.84,-12.81 6.9591,-25.4 4.8391,-38.68 2.3,-1.5 4.7203,-2.9006 7.3203,-3.8406 0.6,-0.18563 1.1353,-0.27814 1.6125,-0.29219 z m -52.128,6.8891 c 0.8062,0.007 1.5562,0.18282 2.1656,0.71406 6.34,11.93 9.1209,25.459 16.661,36.809 4.3,8.74 -6.1112,14.791 -10.731,20.641 -6.85,0.04 -13.72,0.22907 -20.55,-0.26093 -0.15,-3.64 -2.5391,-5.7294 -5.8391,-6.7094 -3.66,-6.2 -0.6006,-13.71 4.0094,-18.52 10.24,-9.11 -11.65,-17.449 -3.9297,-27.909 4.91,0.27 8.5494,-3.2106 13.009,-4.3406 1.3887,0.36438 3.431,-0.43834 5.2047,-0.42344 z m 174.07,13.641 c -0.8245,0.0284 -1.7034,0.19032 -2.6109,0.4922 1.37,17.93 11.59,33.83 14.98,51.45 2.22,6.96 5.1503,13.651 7.5703,20.541 5.32,21.96 18.219,41.139 23.959,62.909 -3,3.54 5.4897,9.13 5.0297,3.6 0.62,-26.44 -18.17,-49.009 -22.28,-75.069 -4.94,-19.43 -9.1891,-40.341 -21.189,-57.211 0.6582,-4.4444 -1.8863,-6.8356 -5.4594,-6.7125 z m -347.07,17.573 c 5.41,2.59 3.6509,13.059 8.9609,17.019 4.98,2.52 2.7497,9.1903 3.5297,13.77 2.31,6.29 2.3803,12.82 4.8203,17.97 3.77,0.76 4.2703,5.7797 6.6703,8.1297 -6.81,1.16 -13.951,-0.27969 -20.611,2.9703 -3.97,-4.5 -5.9503,-10.72 -4.2703,-16.62 3.39,0.07 3.0603,7.45 7.7703,6.5 4.49,-3.2 0.5609,-9.53 -0.3891,-13.5 -1.78,-4.28 4.2894,-6.7703 2.3594,-11.37 -5,-7.29 -7.4406,-16.189 -8.8406,-24.869 z m 286.22,28.08 c 4.45,0.21 8.9706,0.93 13.191,2.4 2.6,4.46 1.0197,10.61 4.7797,14.57 4.82,-2.93 -2.91,-12.6 4.1,-15.05 5.2,0.24 8.49,4.7597 9,9.6297 4.26,0.47 0.1494,-6.7403 3.9094,-7.7203 6.32,-2.59 14.411,1.9106 11.141,9.4406 5.67,-2.17 8.8703,3.28 8.5703,8.6 -3.53,1.23 -7.4609,0.35969 -10.961,1.7797 0.87,6.66 12.061,4.8391 10.141,12.389 2.13,5.39 -1.6794,8.5406 -6.0594,9.9406 0.16,2.54 4.9088,4.11 2.3688,7.05 -2.84,5.4 -8.5488,-5.0294 -8.2188,2.6906 -3.75,1.33 -11.19,2.12 -14.1,-1.7 -1.62,4.7 -7.4009,6.1297 -10.911,1.6797 -1.78,6.12 -8.32,5.7397 -13.65,4.9797 -1.47,-4.52 7.7406,-5.4497 8.3406,-9.6797 -1.89,-4.15 -6.6203,0.24031 -9.6203,-0.0797 1.44,-4.89 1.1803,-10.211 2.8203,-14.981 3.62,-2.04 8.1394,-2.3288 11.209,-5.3688 -2.85,-5.06 -16.329,2.6597 -12.989,-7.2703 0.48,-3.85 5.2691,-2.8097 7.7391,-4.6797 0.12,-6.18 -9.6503,-2.8009 -10.52,-8.6609 0.5,-2.51 -2.6397,-8.5294 -0.2797,-9.9594 z m -259.56,39.159 c 11.22,1.22 25.08,-1.8597 33.63,7.4203 4.45,2.2 10.22,4.37 7.6,10.95 -6.3,2.13 -0.41,-6.5694 -6.1,-6.7094 -15.81,-2.1 -31.84,-0.35062 -47.58,1.6594 -2.76,-0.1 -2.8506,3.7594 -0.9406,4.9594 10.71,4.77 22.54,4.99 33.85,7.3 -1.05,2.57 -8.7394,3.1712 -4.9594,6.8312 7.56,8.01 18.09,-2.5412 26.65,-3.7312 2.71,3.82 12.029,5.5512 6.8594,11.481 -10.86,1.9 -15.699,12.239 -21.789,20.189 -5.43,5.32 -13.75,4.1003 -20.67,5.3203 -7.14,0.96 -12.75,6.1906 -19.07,8.8906 -5.05,-2.59 -2.0997,-7.2306 0.9703,-10.041 -0.95,-8.88 -11.68,-4.8294 -17.78,-5.4094 -1.8,-5.05 5.4488,-6.6706 5.6688,-11.341 -3.93,-2.47 -9.1397,-3.0606 -12.78,-5.3906 -0.14,-6.9 5.74,-11.57 11.2,-14.63 3.04,-4.8 -4.4191,-6.1391 -7.3891,-7.0891 -8.84,-0.15 -3.67,-10.171 1.4,-11.861 10.58,-2.21 20.93,-5.64 31.23,-8.8 z m 116.45,28.58 c 1.7332,0.10855 2.3238,2.7759 2.875,4.2109 7.48,17.04 3.3494,35.74 6.1594,53.7 -2.14,5.17 -3.2103,13.28 2.8297,16.17 6.81,-13.08 8.7709,-28.301 9.8109,-42.831 -0.42,-4.74 -1.8409,-13.839 3.1391,-15.119 3.44,17.15 9.3306,34.06 17.491,49.48 8.17,5.56 3.5303,17.54 2.6703,25.4 -9.32,45.63 -13.911,92.16 -24.591,137.43 -1.3,0.8 -3.3694,0.97062 -4.1594,-0.60938 -4.81,-7.04 -9.1606,-14.74 -16.191,-19.85 -5.81,-3.75 -5.9203,-11.681 -10.57,-16.491 -8.92,-9.19 -17.659,-18.581 -25.239,-28.941 2.26,-8.54 4.5394,-18.03 -0.3406,-26.5 -0.38,-6.45 -10.51,-7.2597 -7.3703,-14.53 -1.59,-25.47 -19.96,-45.319 -30.53,-67.389 3.45,-3.02 8.6703,-3.6409 12.17,-6.8609 9.27,-4.67 10.88,-17.73 21.13,-20.75 2.09,-1.6 5.0097,-6.7897 7.3797,-2.8297 1.05,14.55 5.85,28.261 2.8,42.891 0.29,2.96 -2.5894,12.509 3.0906,11.289 12.45,-16.14 18.6,-36.86 18.82,-57.1 5,-5.97 2.8994,-15.02 7.8094,-20.65 0.2975,-0.1 0.568,-0.13583 0.8156,-0.12031 z m -134.49,4.8812 c -0.25,5.39 9.93,6.47 8.1,12.6 -2.18,6.69 5.8506,10.25 11.091,11.4 4.19,-3.36 -8.0297,-5.1 -2.9797,-9.85 9.93,-9.2 -10.331,-13.25 -16.211,-14.15 z m 64.75,12.36 c 3.8022,-0.0209 1.4094,6.8609 -0.1844,8.8203 -4.19,5.41 -4.27,12.749 -7.95,18.339 -3.36,2.58 -8.01,-1.9691 -5.5,-5.4891 4.85,-6.8 10.481,-13.33 12.791,-21.57 0.3107,-0.0663 0.5903,-0.0986 0.8438,-0.1 z m 187.86,6.3797 c -5.79,0.72 -9.5306,5.44 -13.891,8.75 -1.29,1.73 -2.6006,6.8409 -5.1406,3.5109 -1.08,-4.33 -3.71,-9.0906 -8.85,-8.6906 -3.44,2.33 4.5812,7.5194 0.6312,10.509 -4.23,-0.28 -13.07,-0.86 -10.5,5.8 -0.2,3.41 3.7191,4.7009 4.6391,7.5109 -6.14,5.6 -15.44,-3.0306 -22.05,2.2094 3.87,5 11.38,6.4297 16.87,9.1797 0.94,5.26 -6.3306,1.1709 -9.6906,1.7609 -2.7,3.16 -0.5091,10.01 4.2109,8.4797 2.8,-0.96 4.2791,2.6694 3.0891,4.8094 -1.56,7.1 -13.899,8.17 -10.059,16.85 5.85,3.87 11.22,-3.0491 14.62,-7.1891 10.63,0.1 8.1894,12.04 8.0594,19.48 9.39,3.68 2.9306,-11.18 8.9906,-13.58 8.07,0.93 -0.6406,15.579 7.6094,15.789 1.71,-5.81 0.1903,-15.49 8.6703,-15.35 5.24,0.77 8.4694,-11.459 1.5594,-8.6594 0.7,-3.8 1.7,-7.5594 2.75,-11.259 4.93,-1.12 13.25,1.4397 14.3,-5.5703 -1.36,-7.04 -16.52,0.40907 -13.4,-8.2109 1.08,-7.64 12.561,-4.8794 15.481,-10.609 -2.57,-5.49 -10.32,0.0594 -13.05,-4.8906 -0.84,-2.85 -5.4503,-0.46876 -4.1703,-4.2188 -2.64,-5.31 9.8003,-16.461 -0.6797,-16.411 z m -30.05,24.45 c 7.74,0.61 15.51,0.86062 23.28,1.1406 2.19,2.62 -4.3909,3.6503 -2.0109,6.3703 3.64,3.13 4.0403,11.169 -1.3297,12.639 -2.93,0.36 -2.7103,4.6497 0.3797,4.2797 5.13,-0.13 2.3409,5.9512 3.0109,9.2312 -4.58,-2.93 -14.151,1.9988 -15.711,-4.2812 -3.35,-1.26 -4.3291,5.6006 -8.5891,2.4906 0.44,-5.86 1.1303,-11.71 -0.03,-17.55 3.57,-0.42 9.5797,-1.0703 7.8297,-6.1703 -5.23,0.28 -11.51,-2.78 -6.8297,-8.15 z m -163.03,27 c 6.18,-0.11 5.0506,8.7697 8.3906,12.48 3.22,8.3 13.4,12.281 13.4,22.081 -9.31,3.56 2.9006,15.4 -5.7094,19.68 2.12,7.25 0.2694,16.419 7.3594,21.259 8.26,2.94 7.5194,13.37 12.259,19.62 1.7,2.44 5.93,10.2 -0.15,8.45 -4.62,-4.32 -13.49,-4.3506 -14.78,-11.541 -1.82,-9.59 -6.83,-18.51 -6.8,-28.4 -0.49,-7.38 -7.82,-13.47 -4.4,-20.78 -4.57,-13.36 -7.3603,-28.47 -9.5703,-42.85 z m -132.45,3.8062 c 1.6016,0.0732 2.1309,2.2875 1.8953,3.9938 -1.18,8.13 1.45,16.041 2.55,23.991 -5.71,-6.19 -14.45,-19.751 -5.7297,-27.661 0.4875,-0.24376 0.9147,-0.34033 1.2844,-0.32344 z m 385.44,31.04 c 0.28,0.22 0.8403,0.65031 1.1203,0.87031 6.61,22.12 -9.2603,43.84 -3.2203,66.18 3.28,13.81 -2.6606,29.46 4.8094,42.27 6.53,8.8 15.151,16.46 19.781,26.53 2.86,20.8 -3.18,43.141 7,62.641 10.81,20.07 14.769,42.76 23.359,63.68 -14.16,3.77 -29.5,1.6006 -43.15,7.9406 -9.06,-0.25 -16.61,6.52 -25.57,5.8 4.19,-21.53 14.241,-41.911 14.211,-64.281 4.36,-22.92 2.4891,-46.56 -5.5109,-68.43 -8.28,-15.17 -13.07,-32.17 -13.73,-49.37 -2.96,-9.37 -5.6606,-19.609 -1.6406,-29.109 5.42,-18.92 -2.8097,-38.06 1.3703,-56.7 4.13,2.94 2.7509,9.8994 4.8109,14.259 4.76,11.35 -1.08,25.331 7.5,35.341 3.32,-9.8 3.7097,-20.34 5.5797,-30.47 -1.82,-8.92 -1.7203,-19.27 3.2797,-27.15 z m -113.91,52.08 c 4.31,-0.28 2.3997,5.7609 3.0797,8.7609 1.73,11.81 -2.5706,23.42 -0.3406,35.2 5.24,27.89 -3.5194,56.439 2.7906,84.189 1.73,5.58 8.4797,4.32 9.5297,-0.95 3.7,-15.79 2.1706,-32.419 8.0906,-47.819 2.22,-1.57 2.6397,1.8794 2.9797,3.4094 0.12,16.5 -0.7206,33.07 0.9094,49.55 5.75,25.04 11.95,50.13 21.4,74.15 5,13.53 -14.499,15.36 -21.559,22.68 -14.21,4.32 -30.19,-0.89904 -42.97,-7.389 1.13,-13.68 -0.5297,-26.73 -1.3797,-40.32 -1.23,-9.31 -7.35,-17.13 -8.35,-26.43 3.3,-16.65 -1.93,-34.03 3.7,-50.2 2.2,-2.96 6.8097,-5.0209 6.2297,-9.2609 -4.3,-9.73 -9.1697,-20.519 -20.23,-23.589 5.28,-10.41 13.649,-19.151 17.539,-30.311 6.52,-10.37 7.4406,-23.27 14.991,-33.05 2.04,-2.5 1.6906,-6.1003 3.5906,-8.6203 z m 25.559,31.17 c 5.9,1.39 5.92,9.8309 7.55,14.561 0.83,5.89 5.8103,9.4491 9.6203,13.489 6.15,9.4 6.3591,21.29 12.739,30.6 1.62,4.75 0.7809,10.961 5.5609,14.211 3.66,-0.33 3.0803,-6.5512 3.5203,-8.9312 0.25,-14.34 -3.93,-32.08 -0.85,-44.93 3.34,8.66 4.9097,20.52 11.43,28.88 6.6,1.44 -0.2906,-11.829 6.2094,-9.4891 1.06,-2.77 -4.1397,-12.23 1.9203,-9.8203 1.39,-3.15 -3.3706,-12.69 1.4594,-12.5 -1.91,21.2 10.231,38.72 15.431,58.43 8.03,16.18 2.26,33.9 0.8,50.78 -5.8,29.23 -20.511,57.65 -15.841,88.07 7.08,10.66 18.561,25.95 8.7406,38.5 -2.88,9.37 -14.231,5.7403 -21.681,5.8703 -13.9,-3.12 -24.34,-13.971 -37.58,-18.691 -13.18,-3.09 -27.07,0.36 -40.13,-3.55 -5.25,-3.51 -8.6594,-9.0294 -13.659,-12.809 1.77,-7.37 2.12,-14.97 2.15,-22.52 3.79,-1.65 5.44,2.9206 7.9,4.7906 11.31,6.31 25,5.699 37.45,4.439 2.82,-1.65 12.36,0.62128 7.6,-3.6687 7.24,-0.7 11.69,-6.8213 17.85,-9.8313 4.84,9.2 8.05,20.141 8.3,30.111 -11.85,6.31 14.39,21.31 10.75,6.1297 -0.11,-4.84 -8.7209,1.0197 -7.8609,-4.1703 4.74,-12.19 1.9103,-25.39 -1.7297,-37.45 -4.59,-11.96 -5.1803,-24.92 -8.6203,-37.18 -8.52,-14.56 -5.3794,-33.369 -16.159,-47.159 -5.61,-24.12 -2.1503,-49.901 -10.12,-73.541 5.35,-9.24 -2.58,-21.76 -2.75,-32.62 z m -125.57,6.05 c 4.61,-0.16 7.6403,4.22 11.82,5.6 2.26,-1.36 5.0703,-5.6303 7.7203,-2.6203 4.45,5.8 9.4197,11.59 11.18,18.87 -5.45,-2.31 -8.49,-8.75 -14.05,-10.9 -2.95,-0.59 -2.0294,3.6206 -2.4594,5.4406 -3.56,1 -4.8603,-3.9697 -6.9703,-5.9797 -1.98,-3.69 -7.2106,-5.9309 -7.2406,-10.411 z m 254.16,17.111 c 9.39,1.17 12.08,14.05 20.33,18.53 10.81,3.76 4.0591,-10.03 6.8391,-15 11.68,14.5 11.49,34.3 17.42,51.28 7.04,21.58 -1.5794,43.559 -6.2594,64.609 -0.49,3.82 -6.49,-1.3897 -2.75,-3.6797 -1.47,-13.2 -2.6409,-26.46 -4.2609,-39.62 -0.07,-5.52 -8.1288,-0.83938 -4.7188,3.5906 -0.93,31.13 -5.7503,62.61 1.5297,93.4 0.93,3.69 3.8997,13.581 9.2797,10.391 7.2,-12.26 1.2394,-28.861 4.1594,-40.581 2.81,9.72 3.14,23.161 4.3,34.611 0.56,13.47 4.7509,26.91 2.3609,40.4 -7.4,10.9 -17.861,-2.2403 -27.091,-2.7203 -14.85,-2 -26.339,-12.651 -39.709,-18.341 -13.1,-2.69 -27.43,-1.9194 -39.23,-9.1094 -0.35,-2.52 -1.6912,-6.9803 0.6688,-8.8703 10.56,-0.38 20.07,7.9106 30.72,4.7406 14.09,-0.6 27.691,-4.79 40.391,-10.7 3.52,-1.39 3.9397,3.25 5.1297,5.4 5.21,2.07 4.6897,-7.1503 3.8297,-9.7703 -5.15,-27.21 -13.489,-54.04 -26.789,-78.42 -2.62,-8.03 -2.8309,-16.85 -7.0609,-24.35 -0.48,-13.86 -0.2803,-28.03 1.3797,-41.78 -1.98,-8.63 -10.169,-14.12 -13.669,-21.25 7.69,-1.21 15.49,-1.6094 23.2,-2.7594 z m -216.62,2.86 c 4.57,9.93 7.1697,20.53 10.03,31.02 4.76,6.63 6.1503,18.66 16.92,17.12 -0.02,6.29 -0.8009,12.549 1.0391,18.759 -7.33,1.9 -3.4388,-12.291 -9.7188,-11.441 -5.2,-7.07 -5.31,-18.11 -14.4,-21.25 0.28,-8.99 -1.9912,-18.959 -8.5312,-25.569 0.59,-2.85 1.42,-5.64 2.3,-8.4 l 2.3609,-0.24062 z m 132.29,46.68 c -5.49,20.2 -4.8388,41.571 -7.1188,62.261 1.66,4.02 -3.7912,17.21 3.9188,15.83 3.86,-21.03 0.6003,-42.75 4.6703,-63.78 -2.27,-4.77 4.9697,-12.321 -1.4703,-14.311 z m 8.8937,43.131 c -0.2239,0.004 -0.4647,0.0509 -0.7234,0.14844 -8.32,27.09 -10.37,55.531 -7.65,83.711 -0.96,5.04 0.6003,18.399 7.4703,12.009 -2.56,-30.79 -0.1503,-61.96 3.7797,-92.52 -0.5513,-1.33 -1.309,-3.3793 -2.8766,-3.3484 z m 40.338,77.792 c 2.26,0.0362 4.3788,0.5172 5.8688,2.4672 -1.12,6.04 -14.01,3.7797 -12.58,-2.2703 2.05,0.17496 4.4509,-0.23312 6.7109,-0.19688 z m -91.098,24.303 c -4.5992,0.007 -9.0625,0.3656 -12.462,0.3844 -5.33,-1.59 -9.4397,7.3897 -4.4797,9.3297 12.33,-1.54 25.14,0.19032 36.3,5.8203 2.21,1.34 4.2506,-1.01 3.0906,-3.15 -1.5537,-10.718 -12.33,-12.4 -22.448,-12.384 z m 157.25,1.2641 c -5.69,5.33 -13.451,-0.0503 -19.911,3.2797 -2.36,6.35 7.2909,9.2906 11.811,10.191 7.11,2.46 13.73,-10.35 8.1,-13.47 z"
           fill="#53432f" />
        <path
           id="path6"
           d="m 171.75,35.87 c -7.144,0.07344 -14.28,0.56875 -21.255,2.15 -6.18,1.87 -12.33,5.2494 -19,4.2094 l -7.9797,0.81094 c -6.72,4.95 -11.57,12.59 -20.87,12.5 -7.75,1.85 6.4197,4.6194 1.2297,8.3594 -28.32,7.591 -49.47,30.451 -68.68,51.321 9.94,-5.67 18.74,-13.5 29.83,-17.14 -1.56,8.7 -7.429,15.59 -10.039,23.82 4.61,-1.08 6.97,-5.78 11.05,-7.85 7.07,-2.37 7.4688,-13.639 16.669,-10.909 1.66,4.75 -5.3494,4.75 -5.9094,8.85 -2.19,8.61 -3.1803,17.57 -3.4203,26.45 6.7,-9.21 8.89,-20.791 15,-30.361 10.21,-1.59 -0.1703,20.11 8.0297,19.42 5.8,-8.19 9.4012,-17.741 15.331,-25.841 2.83,-4.08 6.57,1.57 10.15,1.2 1.46,-6.26 3.5297,-17.66 11.73,-17.6 6.42,3.84 7.1894,12.931 9.8594,19.461 5.73,-0.13 -3.4394,-12.541 2.8906,-11.461 6.73,7.58 17.739,6.5109 26.939,6.0109 -1.27,-2.51 -5.7197,-3.9609 -5.0297,-7.1109 6.34,-3.06 13.06,-5.3397 19.92,-6.9297 6.57,-1.24 11.26,-6.7391 17.95,-7.7391 -7.3,-4.38 -22.8,0.83875 -28.32,-7.4312 11.04,-4.83 23.731,-3.29 35.091,-7.25 -2.37,-8.32 -23.37,5.2309 -24.88,-6.8391 6.2,-4.5 19.649,-1.8497 24.819,-6.9797 -12.58,-3.72 -28.81,-0.69062 -41.95,-5.8906 -4.41,-6.63 16.261,-0.74 13.681,-7.05 -4.26,-0.11625 -8.5495,-0.22375 -12.836,-0.17969 z M 227.36,64 c -2.15,1.24 -2.9288,3.5403 -2.1188,5.8703 5.93,0.51 11.84,-0.93969 17.65,-2.0297 -1.53,-4.84 -11.22,-1.491 -15.53,-3.841 z m 31.894,8.0562 c -0.35,-0.0333 -0.8843,0.10375 -1.6437,0.48438 -10.59,4.22 -22.49,3.9891 -33.43,1.4891 -6.87,0.8 -1.0297,9.36 -5.7797,12.3 -2.05,4.32 -10.021,3.6006 -10.241,8.6406 9.62,-0.97 19.161,-3.1803 28.631,-4.7703 4.17,2.17 -3.0406,4.0006 -2.3906,5.9406 6.84,0.32 14.17,-3.5603 16.7,-10.07 -4.94,2.34 -10.371,2.07 -15.541,0.6 -1.57,-0.4 -8.1588,-1.2497 -6.2188,-4.5797 9.47,-0.17 18.819,-2.5912 27.539,-6.1312 1.9581,-0.43062 3.8902,-3.7588 2.3734,-3.9031 z m -106.14,30.103 c -3.53,0.02 -1.89,4.42 0.05,5.7 7.52,6.39 13.641,14.541 17.191,23.781 1.89,7.36 9.6206,11.81 10.591,19.5 -0.19,8.74 -3.5212,17.029 -3.7812,25.789 -8.05,14.99 -9.6597,32.641 -10.88,49.311 10.11,19.48 7.1697,43.779 3.9297,65.019 -3.02,-19.76 -3.2894,-39.81 -3.1594,-59.75 -1.39,-0.77 -3.9003,-3.2591 -3.7203,-0.0891 -0.91,14.82 -3.7003,29.559 -7.2203,43.959 -3.79,-17.29 -0.5288,-35.519 3.6812,-52.589 0.71,-1.86 -1.1006,-6.8712 -2.9406,-3.9812 -3.28,18.86 -8.0497,37.441 -11.83,56.211 -0.82,2.84 0.7094,9.3003 -4.0406,9.2203 -4.59,-16.89 -1.6991,-34.761 4.6609,-50.761 -0.04,-0.94 1.3491,-3.22 -0.2609,-3.25 -9.35,13.41 -16.82,28.29 -20.8,44.23 0.42,11.5 2.7506,22.891 3.4406,34.391 1.25,5.72 4.2391,-2.8797 7.4891,-0.62969 7.15,2.02 3.95,11.989 4.05,17.039 -3.54,13.93 -14.25,24.93 -26.5,31.75 -7.04,10.94 2.5,23.4 2.8,34.97 -1.32,5.79 5.8109,8.9306 4.0609,14.691 -5.34,14.57 -18.481,25.25 -21.541,40.78 -4.2,10.72 0.3509,21.631 3.2609,31.991 8.5,3.9 1.2397,-11.9 8.4297,-11.47 4.1,-0.25 0.4503,6.63 2.3703,8.3 -0.06,4.03 5.9391,1.9591 6.8391,5.5391 8.13,12.16 6.0603,27.311 11.82,40.311 3.23,12.52 6.3497,27.05 16.03,35.65 -6.2,-12.29 -10.259,-26.18 -8.6891,-40.15 6,-3.35 5.0497,7.47 7.6297,10.35 5.24,10.83 8.55,25.28 19.85,30.78 -2.82,-9.34 -11.171,-19.661 -7.6609,-29.441 9.92,1.53 9.3109,19.861 19.911,22.441 -1.59,-9.72 -5.0006,-19.079 -7.0406,-28.709 10.66,-4.95 9.6706,16.41 15.841,18.73 -0.87,-10.69 0.1597,-22.4 -6.1703,-31.73 -1.79,-1.64 -0.1894,-4.52 2.1406,-4.05 5.37,-0.15 5.33,8.9197 9.7,8.7297 3.31,-6.04 2.52,-13.251 2.15,-19.841 -3.21,-3.04 -7.9012,-4.8797 -9.5312,-9.2797 -0.43,-2.79 2.0409,-5.4803 1.3109,-8.2203 -5.46,-0.48 -12.23,-4.4091 -10.2,-10.839 -3.05,-6.41 5.5497,-2.4303 4.2797,-6.4703 -6.31,1 -13.21,-2.5403 -13.35,-9.6203 -1.62,-4.93 6.0806,-6.6597 5.6406,-11.13 -3.45,-4.61 -8.39,-10.25 -6.2,-16.47 1.49,-6.96 10.029,-7.4903 13.969,-12.42 -0.83,-15.08 -14.47,-23.4 -22.18,-34.98 -3.74,-2.19 -7.8591,-4.2406 -9.3891,-8.6906 -4.67,-7.13 2.6991,-14.529 1.1891,-22.039 -0.78,-2.67 1.1306,-5.0503 3.5906,-5.8703 8.01,-3.29 15.469,-8.3003 24.089,-9.7703 12.42,1.84 22.21,11.84 27.07,22.93 1.59,9.2 1.6706,19.371 9.1906,26.231 2.81,-3.48 1.8997,-8.8912 5.4797,-11.731 2.15,3.95 3.84,8.1309 5.25,12.411 -0.33,-12.22 -11.16,-21.531 -16.83,-31.041 2.08,-2.82 8.58,4.1409 10.75,-1.1391 -3.17,-12.7 -0.9506,-25.871 -2.7406,-38.691 -0.37,-3.79 -5.7497,-4.95 -5.0797,-8.9 4.22,-0.14 8.1397,3.8406 12.28,2.1906 0.22,-3.7 1.25,-8.17 -2.05,-10.85 0.13,-20.87 -0.1497,-41.971 -5.4297,-62.331 2.71,-0.18 5.3703,5.7006 7.4203,1.1406 4.52,-13.28 -12.95,-21.5 -14.15,-33.97 2.19,-3.75 10.399,5.0806 11.609,-0.90938 -2.59,-5.55 -8.4991,-8.5606 -11.589,-13.741 -0.63,-6.75 13.25,1.9303 11.08,-3.9297 -16.92,-16.18 -39.6,-32.061 -41.85,-57.391 -3.36,-5.32 4.7091,-12.22 -0.8609,-16.3 -8.18,1.51 -16.32,-0.5 -24.45,-0.9 z m 320.07,271.06 c -2.36,1.43 0.7797,7.4494 0.2797,9.9594 0.87,5.86 10.64,2.4809 10.52,8.6609 -2.47,1.87 -7.2591,0.82969 -7.7391,4.6797 -3.34,9.93 10.139,2.2103 12.989,7.2703 -3.07,3.04 -7.5894,3.3288 -11.209,5.3688 -1.64,4.77 -1.3803,10.091 -2.8203,14.981 3,0.32 7.7303,-4.0703 9.6203,0.0797 -0.6,4.23 -9.8106,5.1597 -8.3406,9.6797 5.33,0.76 11.87,1.1403 13.65,-4.9797 3.51,4.45 9.2909,3.0203 10.911,-1.6797 2.91,3.82 10.35,3.03 14.1,1.7 -0.33,-7.72 5.3788,2.7094 8.2188,-2.6906 2.54,-2.94 -2.2088,-4.51 -2.3688,-7.05 4.38,-1.4 8.1894,-4.5506 6.0594,-9.9406 1.92,-7.55 -9.2706,-5.7291 -10.141,-12.389 3.5,-1.42 7.4309,-0.54969 10.961,-1.7797 0.3,-5.32 -2.9003,-10.77 -8.5703,-8.6 3.27,-7.53 -4.8206,-12.031 -11.141,-9.4406 -3.76,0.98 0.3506,8.1903 -3.9094,7.7203 -0.51,-4.87 -3.8,-9.3897 -9,-9.6297 -7.01,2.45 0.72,12.12 -4.1,15.05 -3.76,-3.96 -2.1797,-10.11 -4.7797,-14.57 -4.22,-1.47 -8.7406,-2.19 -13.191,-2.4 z m -55.039,115.81 c -4.68,5.37 1.5997,8.43 6.8297,8.15 1.75,5.1 -4.2597,5.7503 -7.8297,6.1703 1.16,5.84 0.4697,11.69 0.03,17.55 4.26,3.11 5.2391,-3.7506 8.5891,-2.4906 1.56,6.28 11.131,1.3512 15.711,4.2812 -0.67,-3.28 2.1191,-9.3612 -3.0109,-9.2312 -3.09,0.37 -3.3097,-3.9197 -0.3797,-4.2797 5.37,-1.47 4.9697,-9.5091 1.3297,-12.639 -2.38,-2.72 4.2009,-3.7503 2.0109,-6.3703 -7.77,-0.28 -15.54,-0.53062 -23.28,-1.1406 z m -295.48,30.806 c -0.3697,-0.0169 -0.7969,0.0797 -1.2844,0.32344 -8.72,7.91 0.02,21.471 5.7297,27.661 -1.1,-7.95 -3.73,-15.861 -2.55,-23.991 0.2356,-1.7062 -0.2937,-3.9206 -1.8953,-3.9938 z"
           fill="#fff5c0" />
        <path
           id="path8"
           d="m 311.05,59.97 c -0.39,0.09 -1.1703,0.27969 -1.5703,0.37969 -5.47,7.42 -7.8803,16.28 -11.17,24.9 -3.83,7.32 -9.2994,13.99 -10.559,22.4 -8.38,16.47 -13.941,34.36 -18.791,52.23 -1.68,5.53 -5.7594,10.511 -4.7594,16.611 6.86,1.09 6.7594,-9.8306 13.109,-12.191 12.44,-10.25 27.541,-18.429 44.061,-19.159 18.56,-4.41 39.379,6.24 48.609,22.8 2.82,4.14 7.48,8.3894 4.2,13.959 -2.15,-1.67 -2.3194,-5.5303 -4.4594,-7.6703 -7.83,-15.89 -28.551,-23.54 -44.541,-19.23 4.18,5.12 21.74,3.8206 18.23,15.291 -5.98,0.05 -14.779,-5.3303 -20.619,-0.77031 3.05,1.95 9.0697,4.2997 6.6797,8.9797 -16.28,3.47 -32.981,-1.1506 -48.461,-6.2406 -2.64,2.99 -6.71,4.9709 -9.6,8.0109 2.45,10.89 10.89,18.44 17.15,27.17 7.05,5.27 15.951,7.2088 24.391,9.0688 3.55,-0.76 10.311,0.61031 10.191,-4.2297 -5.61,1.35 -10.901,-1.4797 -16.081,-3.1797 1.38,-1.53 2.6906,-3.1797 4.3406,-4.4297 13.59,-1.21 27.129,-5.1206 40.859,-2.8906 9.38,-1.53 19.381,1.5897 26.741,7.4797 1.33,3.57 4.5794,11.381 -1.1906,12.281 -10.1,-2.72 -21.28,-3.9506 -31.9,-5.3406 -4.72,0.56 3.5006,4.84 0.3406,6.9 -6.57,4.72 -14.6,5.6597 -21.32,9.5297 -1.29,16.54 -8.6791,32.78 -15.389,47.72 -5.16,2.62 -5.0809,9.3003 -6.5609,14.27 -2.34,0.01 -6.2397,-4.1903 -4.8297,2.4297 -2.38,8.85 -11.47,13.37 -13.43,22.47 -4.53,-1.33 -5.4009,4.1703 -6.6609,7.2203 7.44,4.47 16.931,3.5688 24.381,7.8688 3.67,3.63 9.8491,3.5103 10.339,9.7203 3.34,8.3 -8.7194,4.1997 -9.7594,9.6297 4.13,5 9.7091,10.241 8.5891,17.441 -9.5,1.08 -15.759,-8.3303 -24.359,-10.32 -10.25,9.11 -2.2303,25.82 -9.0703,36.27 -5.14,0.41 -8.65,5.2097 -13.85,5.9297 -1.06,0.86 -10.13,1.7209 -6.2297,4.6109 7.47,-2.57 15.329,-4.3606 23.209,-3.1406 3.9,2.55 1.9512,8.16 2.2312,12.1 -7.62,3.71 -7.4009,13.78 -11.461,20.32 -2.96,5.07 -0.6191,10.92 3.9109,14.13 -4.64,10.32 -11.81,20.03 -15.72,30.58 0.3,1.76 2.7194,0.83 3.1094,-0.5 5.52,-9.83 17.4,-14.23 20.67,-25.6 6.09,-1.75 14.32,-4.6403 13.18,-12.72 3.29,-6.99 -6.11,-17.279 1.85,-22.089 4.55,2.67 10.261,9.1603 8.2406,15.27 -0.62,7.37 3.85,14.389 1.85,21.839 -3.24,8.37 -0.64,17.1 -2.25,25.73 2.68,0.38 2.9703,-3.1691 4.1203,-4.8891 5.73,-17.05 12.3,-34.821 9.2297,-53.111 -1.33,-4.89 4.7903,-7.6688 3.6703,-12.869 1.55,-3.85 1.3897,-12.411 7.5297,-10.681 0.16,7.85 0.31,15.721 1.5,23.511 3.51,-0.17 4.6594,-5.7806 9.3594,-4.3406 14.81,1.48 25.57,14.79 28.67,28.57 1.73,3.75 -0.49,12.4 5.1,13.17 -3.54,-17.81 2.84,-36.241 0.4,-53.411 10.32,-5.27 7.2797,-18.809 9.5297,-28.559 -3.69,-2.22 -8.0003,-0.55938 -11.97,-0.20938 -15.71,2.94 -31.67,-0.55031 -47.23,-1.8703 -6.19,-0.41 -8.5691,-12.54 -0.9891,-11.17 3.46,-2.82 11.389,7.6294 10.989,0.35938 -5.45,-9.83 -0.8294,-20.459 4.0406,-29.339 -5.4,-6.49 -15.92,-16.12 -7.6297,-24.75 12.33,-7.86 29.049,-4.1206 41.359,-12.641 3.21,-2.81 9.4806,-4.07 10.891,1.15 1.41,7.22 -2.3406,18.89 5.5094,23.42 4.49,-5.06 -0.7794,-12.65 2.3406,-18.58 -0.61,-16.3 1.5688,-33.731 -1.9812,-49.261 3.27,-3.35 0.9412,-8.2388 0.6312,-12.219 -2.44,-10.12 0.87,-21.01 -3.2,-30.77 -0.93,-15.73 -0.6303,-31.481 -2.5703,-47.141 1.51,-0.42 3.8297,-2.1103 4.7297,0.0297 4.22,7.98 8.0594,16.041 8.5594,25.181 6.59,12.26 -3.7797,28.18 1.2203,38.6 2.25,-10.37 8.1506,-19.4 10.841,-29.57 6.33,-3.11 12.559,5.28 9.8391,11 -1.09,19.02 -13.41,34.079 -20.43,50.909 -1.76,8.16 2.9506,17.51 -0.8094,25 0.75,3.64 5.6191,-0.58031 7.7391,-1.4203 5.19,-1.8 -0.3491,-9.4391 5.1109,-11.039 12.93,-5.1 24.12,-12.16 34.87,-20.97 3.42,-2.98 4.8494,-7.8203 9.2094,-9.7703 6.42,-3.11 5.0697,-12.559 11.88,-15.309 1.28,4.72 -1.8603,10.849 2.8297,14.239 -4.18,2.52 -1.9897,7.9303 -4.5297,11.42 -1.21,2.91 -3.6603,5.2997 -4.3203,8.4297 11.2,-2.7 21.331,-8.3391 31.831,-12.889 3.64,-0.38 -0.2812,-6.2297 4.1188,-4.7297 0.14,8.47 -9.5,17.239 -3.75,25.669 9.35,-3.35 18.15,-8.4694 27.25,-12.559 2.71,-5.65 7.9709,-11.4 3.1609,-17.87 -9.07,-13.8 -7.9006,-31.529 -16.941,-45.209 -4.38,-8.24 -5.4097,-18.001 -11.63,-25.291 -5.33,-8.05 -14.031,-12.829 -21.591,-18.459 -27.3,-17.68 -44.52,-47.561 -74.53,-61.591 -17.06,-4.74 -35.159,-3.4994 -52.409,-7.5094 -5.21,-0.17 -14.391,-1.4303 -15.361,5.8797 -0.06,4.99 -1.9191,10.79 0.3109,15.52 4.62,1 1.77,-5.2203 4.7,-6.8203 3.23,-2.38 3.24,-10.82 8.45,-8.5297 0.22,11.08 -1.0109,25.28 -11.761,31.38 -4.6,2.96 -9.0188,-2.8594 -9.5188,-7.0094 1.41,-10.38 0.9394,-20.921 2.5094,-31.291 3.1,-5.53 -1.2403,-4.3494 -3.6203,-4.4094 -0.92,5.37 3.0309,18.44 -2.8391,20.7 -7.24,-11.82 -7.2606,-26.69 -10.291,-39.92 z m 93.017,75.827 c 13.384,-0.18431 24.502,8.1594 35.723,14.413 10.6,6.88 27.22,13.311 25.83,28.741 1.3,3.82 8.9891,2.5494 7.1891,7.6094 -4.11,5.57 -8.8294,-2.7494 -13.909,-0.25938 2.59,4.41 14.82,9.8506 9.25,15.641 -4.06,-3.83 -8.68,-7.32 -13.9,-8.9 -5.3,4.21 -8.41,11.24 -12.65,16.7 -3.89,0.67 -5.0997,-5.07 -6.2297,-7.95 0.26,-5.5 6.6394,-9.2903 5.3094,-15.32 -4.03,0.55 -10.799,-4.9303 -5.6391,-8.2703 3.21,1.33 6.58,2.3097 10.15,1.3797 2.01,-2.81 -4.8303,-3.8291 -2.8703,-7.1891 3.6,-0.27 7.3991,2.6788 10.739,0.66876 -0.95,-3.9 -5.87,-3.6 -8.75,-5.4 -14.35,-8.26 -29.179,-16.3 -41.159,-27.83 -1.63,-0.72 -2.5106,-2.1197 -1.7906,-3.8797 0.9131,-0.0913 1.8155,-0.14084 2.7078,-0.15313 z m -84.198,96.508 c -1.6307,-0.001 -3.5407,0.34813 -4.6782,0.36562 -3.56,0.82 -7.1809,1.2294 -10.811,0.60938 0.46,6.95 6.36,12.68 9.55,17.57 2.93,-4.44 6.27,-10.069 8.6,-15.359 1.0687,-2.6044 -0.5644,-3.1846 -2.6609,-3.1859 z m 215.27,25.942 c -0.6042,-0.0138 -1.221,0.0163 -1.8516,0.0937 0.43,9.39 -6.5312,16.349 -13.331,21.669 -13.63,8.06 -26.96,17.06 -42.28,21.65 -16.99,5.96 -35.259,6.1503 -52.989,7.0703 6.36,5.23 15.67,5.8409 23.53,4.6609 21.65,-3.03 43.019,-9.9309 61.659,-21.511 11.09,-6.95 24.11,-12.93 29.53,-25.75 4.71,-0.75 1.77,5.4197 0.05,7.3297 -8.05,13.2 -23.499,17.611 -34.509,27.531 -10.61,5.5 -21.12,11.75 -33.07,13.88 -15.38,3.62 -32.529,9.6397 -47.459,1.4797 -2.32,-1.59 -4.91,1.95 -2.2,3.35 9.77,6.1 22.279,4.6403 33.059,2.6203 21.25,-2.96 41.19,-11.43 60.4,-20.63 11.4,-7.37 24.67,-13.101 32.58,-24.661 1.875,-8.475 -4.0548,-18.575 -13.117,-18.783 z m 21.16,16.04 c -1.87,0.86 -1.3506,3.2888 0.4094,3.9188 7.38,4.38 14.52,9.59 19.42,16.75 0.77,2.07 5.4803,2.9012 4.2203,-0.26876 -2.76,-10.86 -15.23,-16.13 -24.05,-20.4 z m -7.6594,16.839 c -6.99,1.38 -11.56,8.32 -17.95,11.25 10.7,4.64 23.699,6.6406 30.709,17.241 4.1,7.05 8.2206,14.95 7.0906,23.38 -1.77,4.77 2.7997,12.159 -2.3703,15.309 -4.54,-12.33 -16.08,-19.72 -21.17,-31.83 -6.38,-1.09 -11.191,-11.24 -16.891,-16.55 -2.87,-6.62 -15.469,1.2209 -9.0094,5.9109 8.55,8.29 12.81,21.279 10.77,32.959 -0.3,4.61 -5.3103,13.011 1.7797,14.491 0.35,6.11 -5.9594,11.389 -3.6594,17.439 5.18,3 3.5297,9.6303 5.8797,14.22 3.77,3.83 9.9003,6.2794 11.12,12.009 -1.61,5.49 -8.5903,0.67031 -12.62,1.6703 -0.87,3.1 -1.0606,6.3503 -0.9406,9.5703 4.92,5.55 17.361,8.38 13.691,17.55 -5.35,-0.71 -8.6709,-9.9694 -15.511,-8.5094 -2.61,1.41 -4.8988,3.5491 -6.5688,5.9891 1.69,7.38 7.8391,12.821 10.039,19.861 0.05,4.15 -4.9494,2.91 -6.5594,0.5 -3.82,-5.16 -5.7603,-11.39 -8.5703,-17.1 -3.49,-1.26 -6.9197,1.1888 -9.6797,3.0688 -3.47,4.52 2.2991,12.93 -2.2609,16.55 -6.61,-2.48 -2.2094,-18.059 -11.909,-16.169 -7.61,-1.16 -1.33,14.539 -9.2,12.309 -2.23,-3.77 2.4894,-7.3406 1.0594,-10.741 -5.91,-0.25 -18.08,2.4806 -16.68,-7.3094 -5.73,0.87 -12.5,3.5406 -17.45,-0.95938 -2.24,-1.11 -1.8091,-3.9812 -0.1891,-5.4312 6.05,-1.61 12.919,-1.2 18.289,-4.75 1.6,-3.69 0.1197,-8.3491 0.5297,-12.289 -6.2,-0.44 -17.939,-0.16093 -17.159,-9.0609 5.15,-0.56 10.381,0.29093 15.541,-0.28907 4.69,-8.35 -7.6403,-7.9497 -11.92,-11.53 1.33,-4.75 7.92,-3.3709 11.6,-5.4609 0,-4.43 -1.9,-8.8191 -1.05,-13.239 5.32,-2.19 10.989,-3.56 16.489,-5.3 3.86,-4.85 -6.4191,-17.321 1.2109,-19.641 6.02,4.17 1.8503,18.441 9.9203,20.791 8.69,-0.31 -1.5612,-10.591 3.7688,-14.531 4.32,4.24 1.5806,13.891 8.3906,15.411 5.22,1.48 10.47,2.9997 15.83,3.8797 -1.02,-7.35 -5.9103,-13.221 -9.4203,-19.491 -3.99,-10.74 -5.7597,-22.179 -8.8297,-33.189 -7.84,0.13 -13.699,6.6791 -21.439,7.2891 -7.39,3.82 -15.951,0.86031 -23.611,3.9203 -7.24,1.96 -8.7403,10.701 -8.3703,17.111 -1.43,23.24 -9.7,45.099 -10.55,68.209 -2.11,10.49 -3.22,21.171 -5.35,31.641 -0.98,2.98 -2.6188,8.0897 -6.4688,7.4797 0.34,-34.05 8.2897,-67.48 13.78,-100.82 -6.41,2.47 -6.3203,11.401 -10.77,16.041 -6.24,6.35 -9.0106,14.959 -14.241,21.989 -4.72,0.33 -2.3194,-7.85 -6.6094,-8.05 -5.03,9.43 -6.1594,20.331 -8.6594,30.591 -4.87,23.8 -12.87,47.36 -13.22,71.8 -5.3,44.1 -11.51,88.149 -21.55,131.44 2.05,7.54 -6.4097,14.25 -2.4297,21.37 6.41,-11.67 9.1891,-26.01 18.039,-36.72 3.72,-7.95 9.5897,-14.97 10.83,-23.93 -0.05,-1.1 2.7509,-1.88 2.8609,-0.55 4.31,9.8 3.3703,20.941 7.0203,30.961 3.28,7.57 1.1988,16.02 0.7188,23.95 -3.95,15.34 2.7609,30.669 0.1109,46.089 5.62,-1.83 5.6091,-9.3394 7.1891,-14.009 4.53,-16.02 -1.5594,-33.85 6.1906,-49 11.25,0.52 7.93,15.29 15.15,20.68 4.01,3.72 3.5097,9.7703 5.2797,14.52 6.09,-0.01 8.7109,4.6894 9.5609,10.059 7.02,-8.54 -4.5306,-21.37 2.0094,-29.93 7.41,1.93 12.77,11.49 16.75,16.7 5.54,-9.6 2.7406,-23.949 8.3406,-34.609 7.42,-15.51 3.6191,-32.591 3.2891,-48.941 2.41,-20.17 1.2306,-40.35 -1.3594,-60.4 7.85,-2.11 5.4,7.2294 8.4,11.309 6.43,9.95 6.3603,22.381 11.37,32.911 5.67,-3.39 2.1297,-11.01 3.8297,-16.37 3.23,-11.19 2.6794,-23.67 8.3094,-34.08 5.52,0.33 0.7106,8.0697 2.1406,11.28 -1.08,7.02 3.62,12.89 5.3,19.37 3.99,13.84 7.92,28.47 17.3,39.73 4.25,9.28 10.569,18.93 7.8891,29.62 -1.9,11.49 -4.8297,29.63 8.8703,34.58 7.64,6.58 15.681,14.139 26.161,15.409 -1.69,-13.82 -5.6312,-27.389 -5.7312,-41.409 14.52,-2.35 25.081,9.5803 34.361,18.72 0.97,7.78 6.3203,15.58 7.9203,24.07 2.37,-6.6 5.11,-13.06 8.55,-19.17 -9.33,-13.79 -13.681,-29.94 -20.081,-45.12 -0.42,-2.68 -2.2994,-6.9897 0.7906,-8.2297 10.58,-3.95 11.021,14.999 19.841,14.889 -0.27,-5.42 -0.6109,-10.91 -1.8609,-16.2 -8.22,-21.72 -14.309,-44.28 -17.809,-67.23 -0.87,-49.37 -15.11,-96.95 -23.68,-145.23 -3.47,-12.72 -4.07,-26.981 -12.2,-37.891 -4.46,-12.09 -11.94,-22.69 -18.3,-33.83 z m -188.68,22.797 c -1.7737,-0.0149 -3.816,0.78782 -5.2047,0.42344 -4.46,1.13 -8.0994,4.6106 -13.009,4.3406 -7.72,10.46 14.17,18.799 3.9297,27.909 -4.61,4.81 -7.6694,12.32 -4.0094,18.52 3.3,0.98 5.6891,3.0694 5.8391,6.7094 6.83,0.49 13.7,0.30093 20.55,0.26093 4.62,-5.85 15.031,-11.901 10.731,-20.641 -7.54,-11.35 -10.321,-24.879 -16.661,-36.809 -0.6094,-0.53124 -1.3594,-0.70728 -2.1656,-0.71406 z m 174.07,13.641 c 3.5731,-0.12308 6.1176,2.2681 5.4594,6.7125 12,16.87 16.249,37.781 21.189,57.211 4.11,26.06 22.9,48.629 22.28,75.069 0.46,5.53 -8.0297,-0.06 -5.0297,-3.6 -5.74,-21.77 -18.639,-40.949 -23.959,-62.909 -2.42,-6.89 -5.3503,-13.581 -7.5703,-20.541 -3.39,-17.62 -13.61,-33.52 -14.98,-51.45 0.9075,-0.30188 1.7864,-0.46379 2.6109,-0.4922 z m -347.07,17.573 c 1.4,8.68 3.8406,17.579 8.8406,24.869 1.93,4.6 -4.1394,7.0903 -2.3594,11.37 0.95,3.97 4.8791,10.3 0.3891,13.5 -4.71,0.95 -4.3803,-6.43 -7.7703,-6.5 -1.68,5.9 0.3003,12.12 4.2703,16.62 6.66,-3.25 13.801,-1.8103 20.611,-2.9703 -2.4,-2.35 -2.9003,-7.3697 -6.6703,-8.1297 -2.44,-5.15 -2.5103,-11.68 -4.8203,-17.97 -0.78,-4.58 1.4503,-11.25 -3.5297,-13.77 -5.31,-3.96 -3.5509,-14.429 -8.9609,-17.019 z m 261.23,119.44 c 10.48,-0.05 -1.9603,11.101 0.6797,16.411 -1.28,3.75 3.3303,1.3688 4.1703,4.2188 2.73,4.95 10.48,-0.59938 13.05,4.8906 -2.92,5.73 -14.401,2.9694 -15.481,10.609 -3.12,8.62 12.04,1.1709 13.4,8.2109 -1.05,7.01 -9.37,4.4503 -14.3,5.5703 -1.05,3.7 -2.05,7.4594 -2.75,11.259 6.91,-2.8 3.6806,9.4294 -1.5594,8.6594 -8.48,-0.14 -6.9603,9.54 -8.6703,15.35 -8.25,-0.21 0.4606,-14.859 -7.6094,-15.789 -6.06,2.4 0.3994,17.26 -8.9906,13.58 0.13,-7.44 2.5706,-19.38 -8.0594,-19.48 -3.4,4.14 -8.7703,11.059 -14.62,7.1891 -3.84,-8.68 8.4994,-9.75 10.059,-16.85 1.19,-2.14 -0.2891,-5.7694 -3.0891,-4.8094 -4.72,1.53 -6.9109,-5.3197 -4.2109,-8.4797 3.36,-0.59 10.631,3.4991 9.6906,-1.7609 -5.49,-2.75 -13,-4.1797 -16.87,-9.1797 6.61,-5.24 15.91,3.3906 22.05,-2.2094 -0.92,-2.81 -4.8391,-4.1009 -4.6391,-7.5109 -2.57,-6.66 6.27,-6.08 10.5,-5.8 3.95,-2.99 -4.0712,-8.1794 -0.6312,-10.509 5.14,-0.4 7.77,4.3606 8.85,8.6906 2.54,3.33 3.8506,-1.7809 5.1406,-3.5109 4.36,-3.31 8.1006,-8.03 13.891,-8.75 z m -193.08,51.45 c 2.21,14.38 5.0003,29.49 9.5703,42.85 -3.42,7.31 3.91,13.4 4.4,20.78 -0.03,9.89 4.98,18.81 6.8,28.4 1.29,7.19 10.16,7.2206 14.78,11.541 6.08,1.75 1.85,-6.01 0.15,-8.45 -4.74,-6.25 -3.9994,-16.68 -12.259,-19.62 -7.09,-4.84 -5.2394,-14.009 -7.3594,-21.259 8.61,-4.28 -3.6006,-16.12 5.7094,-19.68 0,-9.8 -10.18,-13.781 -13.4,-22.081 -3.34,-3.71 -2.2106,-12.59 -8.3906,-12.48 z m 39.07,124.15 c 0.03,4.48 5.2606,6.7209 7.2406,10.411 2.11,2.01 3.4103,6.9797 6.9703,5.9797 0.43,-1.82 -0.4906,-6.0306 2.4594,-5.4406 5.56,2.15 8.6,8.59 14.05,10.9 -1.76,-7.28 -6.7297,-13.07 -11.18,-18.87 -2.65,-3.01 -5.4603,1.2603 -7.7203,2.6203 -4.18,-1.38 -7.2103,-5.76 -11.82,-5.6 z m 37.541,19.97 -2.3609,0.24062 c -0.88,2.76 -1.71,5.55 -2.3,8.4 6.54,6.61 8.8112,16.579 8.5312,25.569 9.09,3.14 9.2,14.18 14.4,21.25 6.28,-0.85 2.3888,13.341 9.7188,11.441 -1.84,-6.21 -1.0591,-12.469 -1.0391,-18.759 -10.77,1.54 -12.16,-10.49 -16.92,-17.12 -2.86,-10.49 -5.4597,-21.09 -10.03,-31.02 z"
           fill="#eaa332" />
        <path
           id="path16"
           d="m 244.87,127.84 c -9.91,0.26 -18.18,11.14 -13.72,20.62 5.64,8.85 10.67,18.08 15.8,27.2 2.74,6.1 3.89,17.53 13.15,15.55 13.55,1.73 19.15,-13.11 22.71,-23.39 5.77,-12.82 -1.05,-27.6 -10.69,-36.53 -7.67,-2.78 -16.13,-2.3 -24.13,-3.18 -1.05,-0.21 -2.09,-0.3 -3.12,-0.27 z m -81.26,2.12 c -8.45,6.17 -4.42,21.96 -10.25,29.8 -8.17,-1.04 -6.2,-16.87 -13.17,-19.75 -5.68,14.66 -8.71,30.91 -19.14,43.4 0.1,11.16 9.94,20.81 20.6,23.97 5.11,0.68 2.11,4.68 0.8,7.69 5.4,-2.81 15.5,-7.71 19.24,-0.61 3.12,6.95 -4.4,13.33 -3.95,20.24 7.54,-0.26 11.32,-9.79 18.3,-12.38 3.92,-2.06 10.51,-9.37 14.03,-3.72 -20.11,20.02 -44.03,36.2 -63.41,56.83 5.6,7.06 16.69,-6.72 21.81,-10.68 9.72,-11.6 26.7,-5.36 39.29,-7.94 4.64,-5.05 1.9,-13.95 5.2,-19.87 3.57,-3.34 7.31,-9.66 12.24,-4.48 1.31,-8.42 -2.43,-18.42 4.34,-25.61 11.43,-20.05 -7.5,-38.43 -16.54,-55.29 -13.59,-0.58 -22.51,-11.25 -29.39,-21.6 z m 99.62,3.98 c 4.66,-0.08 9.21,0.71 9.26,5.91 -2.09,13.74 -19.74,-2.85 -25.18,6.1 7.3,3.2 20.62,3.84 22.05,13.89 -1.83,6.52 -2.5,22.44 -12.97,16.21 1.4,-6.25 4.36,-13.34 -2.86,-17.39 -7.95,-0.8 -16.45,-7.88 -14.69,-16.66 4.07,-5.09 10.31,-7.96 16.86,-7.74 1.91,0.09 4.74,-0.27 7.53,-0.32 z m 29.8,15.09 c -4.98,6.03 -1.76,15.91 -5.71,22.81 2.38,9.57 -5.38,20.86 -14.44,25.09 -3.08,2.47 -10.56,-0.48 -11.84,4.1 7.63,3.32 15.74,5.24 24.08,4.36 10.44,-2.44 15.64,13.29 26.03,8.64 4.34,-2.63 10.09,-4.99 11.23,-10.5 4.68,-16.72 10.67,-33.07 15.03,-49.84 0.59,-6.99 -9.36,-0.96 -12.61,-1.95 -10.82,1.84 -21.17,-2.49 -31.77,-2.71 z M 157.6,164.82 c 2.19,-0.04 2.08,2.55 1.35,5.11 2.77,-0.83 5.46,-1.93 8.27,-2.58 -4.25,6.49 -12.38,10.39 -15.96,17.66 12.8,-7.06 28.27,-14.39 42.95,-9.26 3.07,3.46 -2.92,5.04 -5.45,5.68 -13.7,2.4 -27.91,5.68 -38.4,15.51 -9.87,1.2 -18.26,-10.25 -18.64,-18.88 6.35,2.06 7.91,-6.2 11.71,-6.01 1.63,9.85 8.67,-3.66 12.26,-6.75 0.77,-0.32 1.4,-0.47 1.91,-0.48 z m 33.58,28.22 c 4.83,0.05 9.7,1.23 14.26,2.76 2.28,3.1 -1.28,6.81 -3.49,8.91 -11.39,-0.91 -22.8,0.21 -34.14,1.26 -2.31,-0.73 -5.37,-2.63 -3.59,-5.4 7.92,-3.6 16.24,-6.33 24.89,-7.48 0.69,-0.04 1.38,-0.06 2.07,-0.05 z m 126.6,94.37 c 4.76,7.81 15.37,10.61 21.26,17.94 -12.28,5.67 -25.33,-1.15 -37.05,-5.07 -5.61,-3.05 -8.18,2.46 -6.59,6.38 13.6,0.81 24.96,10.02 36.3,16.8 3.24,1.14 2.38,6.31 -0.82,6.86 -12.77,2.73 -25.29,-3.42 -38.06,-2.68 l -0.29,3.3 c 12.61,2.85 26.8,7.44 36.12,15.21 -9.8,9.85 -26.05,7.9 -38.69,11.65 0.08,0.84 0.2,2.5 0.28,3.34 11.07,1.07 21.62,-5.28 32.71,-2.92 10.86,1.5 19.46,9.64 30.48,10.73 4.95,1.72 10.67,-0.63 12.18,-5.83 1.63,-5.23 10.65,-8.54 7.28,-14.62 -12.28,-1.68 -19.59,-12.53 -24.11,-22.96 -0.5,-8.5 2.01,-17.38 0.58,-25.66 -9.23,-6.77 -20.42,-10.04 -31.58,-12.47 z m -50.75,228.06 c -12.88,3.95 -25.82,8.24 -39.04,11 -6.34,2.12 -12.8,14.64 -1.75,14.83 3.71,1.19 13.03,2.86 9.23,8.86 -6.82,3.83 -14.17,9.66 -14,18.29 4.55,2.91 11.07,3.65 15.98,6.74 -0.28,5.83 -9.34,7.86 -7.09,14.17 7.63,0.73 21.04,-4.34 22.23,6.76 -3.84,3.52 -7.53,9.32 -1.21,12.56 7.9,-3.38 14.91,-9.92 23.83,-11.12 8.65,-1.52 19.05,0 25.84,-6.65 7.61,-9.94 13.66,-22.86 27.24,-25.23 6.46,-7.42 -5.19,-9.58 -8.58,-14.36 -10.7,1.49 -23.86,14.68 -33.31,4.67 -4.72,-4.58 4.89,-5.33 6.2,-8.54 -14.14,-2.89 -28.93,-3.16 -42.31,-9.13 -2.39,-1.5 -2.28,-6.32 1.17,-6.2 19.68,-2.51 39.72,-4.69 59.48,-2.07 7.11,0.18 -0.25,11.05 7.62,8.39 3.28,-8.23 -3.94,-10.94 -9.5,-13.69 -10.68,-11.6 -28.01,-7.75 -42.03,-9.28 z m -22.56,41.83 c 7.35,1.13 32.68,6.19 20.27,17.69 -6.31,5.94 8.96,8.11 3.72,12.31 -6.55,-1.44 -16.59,-5.89 -13.86,-14.25 2.29,-7.66 -10.44,-9.01 -10.13,-15.75 z m 280.22,235.36 c 0.21,13.58 10.12,29.23 3.43,40.78 9.97,29.55 5.64,61.77 12.66,91.92 13.47,17.24 9.54,40.75 20.19,58.95 4.3,15.33 5.04,31.49 10.78,46.49 4.55,15.1 8.09,31.6 2.16,46.8 -1.07,6.5 9.69,-0.8 9.83,5.2 4.55,19 -28.25,0.2 -13.44,-7.6 -0.31,-12.5 -4.32,-26.2 -10.37,-37.7 -7.7,3.8 -13.27,11.4 -22.32,12.3 5.95,5.4 -5.97,2.5 -9.5,4.6 -15.56,1.6 -32.67,2.3 -46.81,-5.6 -3.07,-2.3 -5.14,-8 -9.87,-6 -0.04,9.5 -0.48,19 -2.69,28.2 6.25,4.7 10.51,11.6 17.07,16 16.33,4.9 33.69,0.6 50.16,4.4 16.55,5.9 29.6,19.5 46.98,23.4 9.31,-0.2 23.5,4.4 27.1,-7.3 12.28,-15.7 -2.07,-34.8 -10.93,-48.2 -5.83,-38 12.56,-73.5 19.81,-110.04 1.82,-21.1 9.03,-43.25 -1,-63.47 -6.5,-24.64 -21.68,-46.54 -19.29,-73.04 -6.04,-0.24 -0.09,11.69 -1.83,15.63 -7.57,-3.02 -1.07,8.81 -2.4,12.27 -8.12,-2.92 0.49,13.66 -7.76,11.86 -8.15,-10.45 -10.11,-25.27 -14.29,-36.1 -3.85,16.06 1.38,38.24 1.07,56.16 -0.55,2.98 0.17,10.76 -4.4,11.17 -5.98,-4.06 -4.93,-11.83 -6.96,-17.77 -7.97,-11.63 -8.23,-26.5 -15.92,-38.25 -4.76,-5.05 -10.99,-9.49 -12.03,-16.86 -2.03,-5.91 -2.06,-16.46 -9.43,-18.2 z m 160.74,28.95 c -9.64,1.44 -19.39,1.94 -29,3.45 4.37,8.92 14.61,15.78 17.08,26.56 -2.07,17.19 -2.32,34.9 -1.72,52.23 5.28,9.37 5.55,20.4 8.82,30.44 16.63,30.47 27.05,64.01 33.49,98.01 1.07,3.3 1.72,14.8 -4.79,12.2 -1.49,-2.7 -2.01,-8.5 -6.41,-6.7 -15.87,7.4 -32.88,12.6 -50.49,13.4 -13.31,3.9 -25.2,-6.5 -38.4,-6 -2.95,2.4 -1.27,8 -0.83,11.1 14.75,9 32.66,8 49.03,11.4 16.72,7.1 31.08,20.4 49.64,22.9 11.54,0.6 24.61,17.1 33.86,3.4 2.99,-16.8 -2.25,-33.6 -2.95,-50.5 -1.45,-14.3 -1.86,-31.1 -5.37,-43.2 -3.65,14.6 3.8,35.4 -5.2,50.7 -6.73,4 -10.44,-8.4 -11.6,-13 -9.1,-38.49 -3.08,-77.84 -1.91,-116.75 -4.27,-5.54 5.81,-11.39 5.89,-4.49 2.03,16.45 3.49,33.03 5.33,49.53 -4.67,2.86 2.83,9.37 3.44,4.6 5.85,-26.32 16.62,-53.79 7.82,-80.77 -7.41,-21.22 -7.17,-45.97 -21.77,-64.09 -3.48,6.21 4.96,23.45 -8.55,18.75 -10.31,-5.6 -13.68,-21.7 -25.41,-23.17 z m -105.42,61.93 c 8.05,2.48 -1,11.92 1.84,17.89 -5.09,26.28 -1.01,53.43 -5.84,79.72 -9.64,1.73 -2.82,-14.76 -4.9,-19.79 2.85,-25.86 2.04,-52.57 8.9,-77.82 z m 11.12,53.91 c 1.96,-0.04 2.91,2.52 3.59,4.19 -4.91,38.2 -7.92,77.16 -4.72,115.66 -8.59,8 -10.54,-8.7 -9.34,-15 -3.4,-35.2 -0.84,-70.8 9.56,-104.66 0.33,-0.13 0.63,-0.18 0.91,-0.19 z m 104.31,87.95 c -2.29,0 -4.72,0.4 -6.8,0.2 -1.45,6.1 11.6,8.4 12.74,2.3 -1.51,-2 -3.65,-2.5 -5.94,-2.5 z m -17.89,1.3 c -2.82,-0.1 -5.83,0.5 -8.39,0.2 -1.79,7.6 14.33,10.4 15.73,2.9 -1.87,-2.5 -4.51,-3.1 -7.34,-3.1 z m -18,4 c -2.82,-0.1 -5.83,0.5 -8.39,0.2 -1.79,7.6 14.33,10.4 15.73,2.9 -1.87,-2.5 -4.51,-3.1 -7.34,-3.1 z m -18,4 c -2.82,-0.1 -5.83,0.5 -8.39,0.2 -1.79,7.6 14.33,10.4 15.73,2.9 -1.87,-2.5 -4.51,-3.1 -7.34,-3.1 z m -113.87,30.4 c 12.65,0 26.12,2.1 28.06,15.5 1.45,2.6 -1.1,5.6 -3.86,3.9 -13.96,-7 -29.97,-9.2 -45.38,-7.3 -6.2,-2.4 -1.06,-13.6 5.6,-11.6 4.25,-0.1 9.83,-0.5 15.58,-0.5 z m 196.56,1.6 c 7.04,3.9 -1.24,19.9 -10.13,16.8 -5.65,-1.1 -17.71,-4.8 -14.76,-12.7 8.07,-4.2 17.78,2.5 24.89,-4.1 z"
           transform="scale(0.8)"
           fill="#ffd396" />
      </g>
      <path
         id="path30"
         d="m 113.32,165.9 c 4.09,0.55 1.69,3.75 0.64,6.16 4.32,-2.25 12.4,-6.17 15.39,-0.49 -9.44,-2.85 -19.28,4.59 -23.5,12.18 6.15,-2.89 11.39,-7.89 18.04,-9.73 6.43,1.6 -1.07,10.26 -5.47,8.6 1.13,3.55 -1.16,7.51 -3.66,2.88 -16.64,12.04 -31.2,28.1 -50.24,36.99 -2.68,1.55 -7.13,5.79 -9.56,1.8 2.24,-2.25 4.78,-4.19 6.91,-6.54 -0.53,-4.25 -6.45,-3.19 -5.81,0.81 -2.58,-0.48 -11.71,0.33 -8.32,-4.61 9.99,-10.96 25.28,-13.99 37.16,-22.04 7.05,-11.44 22.46,-13.52 28.42,-26.01 z"
         fill="#ff655c" />
    </g>
  </g>
</svg>
